<?xml version="1.0" encoding="utf-8"?>
<!-- Generator: Adobe Illustrator 27.7.0, SVG Export Plug-In . SVG Version: 6.00 Build 0)  -->
<svg version="1.1" xmlns="http://www.w3.org/2000/svg" xmlns:xlink="http://www.w3.org/1999/xlink" x="0px" y="0px"
	 viewBox="0 0 20 20" style="enable-background:new 0 0 20 20;" xml:space="preserve">
<style type="text/css">
	.st0{display:none;}
	.st1{display:inline;}
	.st2{fill:none;stroke:#000000;stroke-width:0.25;stroke-miterlimit:10;}
	.st3{fill:none;stroke:#010002;stroke-width:0.25;stroke-miterlimit:10;}
	.st4{fill:#FFFFFF;}
</style>
<g id="Layer_1" class="st0">
	<g id="suit">
		<g class="st1">
			<g>
				<g>
					<polygon class="st2" points="10.3,8.6 11.2,3.6 10.5,2.6 10.8,1.9 9.8,1.9 10.1,2.6 9.4,3.6 					"/>
					<path class="st2" d="M15.4,17.3h1.4l-0.4-6l-0.7-7.9L12.4,2L12,1.3l-0.4,1.4l-1.4,8.1L8.9,2.7L8.6,1.3L8.2,2L4.9,3.4l-0.7,7.9
						l-0.4,6h1.4l1.3-7.8L7,11.3l-1.4,5.9l4,1.8l0.7-3.5L11,19l4-1.8l-1.4-5.9l0.5-1.8L15.4,17.3z M14,6.3l-1.4,0.2l0.9-1.2L14,5.7
						V6.3z"/>
				</g>
			</g>
			<g>
				<path d="M7.2,16c0.3-0.2,0.7-0.1,1,0.2C7.9,16.2,7.5,16.1,7.2,16L7.2,16L7.2,16z"/>
			</g>
			<g>
				<path d="M12.2,16.2c0.2-0.3,0.6-0.4,1-0.2l0,0C12.8,16.1,12.4,16.2,12.2,16.2L12.2,16.2z"/>
			</g>
		</g>
	</g>
	<g id="Layer_2_00000132086636597128106510000006439894974263933846_" class="st1">
		<g>
			<g>
				<g>
					<path class="st2" d="M11.5,10.1L11.5,10.1c-0.2,0-0.3,0.1-0.3,0.3s0.1,0.3,0.3,0.3s0.3-0.1,0.3-0.3S11.7,10.1,11.5,10.1z"/>
				</g>
			</g>
			<g>
				<g>
					<path class="st2" d="M11.5,14.5L11.5,14.5c-0.2,0-0.3,0.1-0.3,0.3s0.1,0.3,0.3,0.3s0.3-0.1,0.3-0.3S11.7,14.5,11.5,14.5z"/>
				</g>
			</g>
			<g>
				<g>
					<path class="st2" d="M11.5,7.9L11.5,7.9c-0.2,0-0.3,0.1-0.3,0.3s0.1,0.3,0.3,0.3s0.3-0.1,0.3-0.3C11.8,8.1,11.7,7.9,11.5,7.9z"
						/>
				</g>
			</g>
			<g>
				<g>
					<path class="st2" d="M11.5,12.3L11.5,12.3c-0.2,0-0.3,0.1-0.3,0.3s0.1,0.3,0.3,0.3s0.3-0.1,0.3-0.3
						C11.8,12.4,11.7,12.3,11.5,12.3z"/>
				</g>
			</g>
			<g>
				<g>
					<path class="st2" d="M18.3,14.8L18,4.8c0-0.9-0.6-1.7-1.4-2l-3.1-1.1L13,0.9c0-0.1-0.1-0.1-0.2-0.1l0,0l0,0h-5l0,0l0,0
						c-0.1,0-0.2,0.1-0.2,0.1L6.9,1.7l-3,1.1C3,3.1,2.5,3.9,2.4,4.8l-0.3,10c0,0.3,0.1,0.5,0.4,0.6l-0.1,1c0,0.3,0.1,0.5,0.4,0.6
						l1.8,0.7c0,0.3,0.2,0.5,0.4,0.6l4.4,1.2h0.1c0.1,0,0.1,0,0.2,0c0.1,0,0.1-0.1,0.1-0.2l0.3-2.5l0.3,2.5c0,0.1,0.1,0.2,0.1,0.2
						c0.1,0,0.2,0.1,0.2,0l4.4-1.2c0.3-0.1,0.4-0.3,0.4-0.6l1.8-0.7c0.2-0.1,0.4-0.3,0.4-0.6l-0.1-1C18.2,15.3,18.3,15.1,18.3,14.8z
						 M13,2l-1.3,2l0,0l0,0l-1-0.8l2-1.7L13,2z M7.8,1.5l2,1.7L8.8,4l0,0l0,0L7.5,2L7.8,1.5z M4.7,17l-1.6-0.6l0,0v-0.8l1.5,0.6
						L4.7,17L4.7,17z M10,14.4L10,14.4l-0.6,4.3l-4.1-1.1l0,0V6.3C5.3,6.1,5.2,6,5,6C4.8,6,4.7,6.1,4.7,6.3v9.2l-1.9-0.7l0,0L3,4.8
						c0-0.6,0.4-1.2,1-1.4l2.9-1l1.2,2c0.1,0.1,0.2,0.2,0.4,0.3h0.1c0.1,0,0.3,0,0.4-0.1l1-0.8V14.4L10,14.4z M10.2,2.8L8.5,1.3H12
						L10.2,2.8z M17.4,16.4L15.8,17v-0.8l1.5-0.6L17.4,16.4L17.4,16.4z M17.7,14.9l-1.9,0.7V6.4c0-0.2-0.1-0.3-0.3-0.3l0,0
						c-0.2,0-0.3,0.1-0.3,0.3v11.3l0,0l-4.1,1.1l-0.6-4.3V3.8l0.8,0.6c0.1,0.1,0.2,0.1,0.4,0.1h0.1c0.2,0,0.3-0.1,0.4-0.3l1.2-2
						l2.9,1c0.6,0.2,1,0.8,1,1.4L17.7,14.9L17.7,14.9z"/>
				</g>
			</g>
			<g>
				<g>
					<path class="st2" d="M8.7,6.1H6.2C6,6.1,5.9,6.2,5.9,6.3v2.2c0,0.5,0.4,0.9,0.9,0.9H8c0.6,0,1-0.4,1-0.9V6.3
						C9,6.2,8.9,6.1,8.7,6.1z M8.4,8.5c0,0.2-0.1,0.3-0.3,0.3H6.8c-0.2,0-0.3-0.1-0.3-0.3V7.8c0.1,0,0.2,0.1,0.3,0.1H8
						c0.1,0,0.2,0,0.3-0.1L8.4,8.5L8.4,8.5z M8.4,7c0,0.2-0.1,0.3-0.3,0.3H6.8C6.6,7.3,6.5,7.2,6.5,7V6.6h1.9V7L8.4,7z"/>
				</g>
			</g>
			<g>
				<g>
					<circle class="st2" cx="11.5" cy="6" r="0.3"/>
				</g>
			</g>
		</g>
	</g>
</g>
<g id="glassess" class="st0">
	<g class="st1">
		<g>
			<path class="st3" d="M14.5,14.4c-2.1,0-3.8-1.7-3.8-3.8c0-0.2,0-0.3,0-0.5H9.5c0,0.2,0,0.3,0,0.5c0,2.1-1.7,3.8-3.8,3.8
				c-2.1,0-3.8-1.7-3.8-3.8c0-0.2,0-0.3,0-0.5H1.4c-0.5,0-0.9-0.5-0.9-1s0.4-1,0.9-1h1.2c0.8-1,1.9-1.6,3.1-1.6S8,7.2,8.8,8.2h2.7
				c0.8-1,1.9-1.6,3.1-1.6c1.1,0,2.3,0.6,3.1,1.6h1c0.5,0,0.9,0.5,0.9,1s-0.4,1-0.9,1h-0.2c0,0.2,0,0.3,0,0.5
				C18.4,12.7,16.7,14.4,14.5,14.4z"/>
		</g>
	</g>
</g>
<g id="Layer_4" class="st0">
	<g class="st1">
		<path class="st2" d="M17.9,8.6c0.3-1.5,0.2-3.5-0.5-4.2c-0.6-0.7-2.4-1.4-2.9-1.5l-0.7-1.4c-0.2-0.3-0.5-0.5-0.8-0.5H7.7
			C7.3,0.9,7,1.1,6.9,1.4L6.1,2.8C5.7,3,3.9,3.6,3.3,4.4C2.6,5.1,2.6,7.1,2.8,8.6c-0.1,0.3-0.4,2-0.1,3.4c0,0.3-0.1,1.8-0.1,2.3
			c0,0.5,0.2,0.9,0.4,1.2l0,1.1c0,0.4,0.2,0.7,0.5,0.9c0,0,0,0,0,0l2.2,1v0.3c0,0.3,0.3,0.6,0.6,0.6h8c0.3,0,0.6-0.3,0.6-0.6v-0.3
			l2.2-1c0,0,0,0,0,0c0.3-0.2,0.5-0.5,0.5-0.9l-0.1-1.1c0.2-0.3,0.4-0.7,0.4-1.2c0-0.5-0.1-2-0.1-2.3C18.3,10.6,18,8.9,17.9,8.6z
			 M17.3,8.5l-1.6,0.7c0-0.2-0.1-0.4-0.2-0.6V7.4c0-0.1,0-1.3,1.5-2.4C17.5,5.6,17.6,7.1,17.3,8.5z M16.8,4.5C15,5.8,15,7.3,15,7.4
			v0.9h-4.4V5.4c1.6-0.4,3.3-1.7,3.8-2.1C15,3.6,16.2,4,16.8,4.5z M15.1,12c0.1,0.4,0.4,1.4,0.1,2.5h-4.5V12H15.1z M10.7,11.4V8.9
			h4.4c0.4,1.1,0.1,2.1,0,2.5H10.7z M13.4,1.7C13.4,1.7,13.4,1.7,13.4,1.7L14,3c-0.5,0.4-2,1.5-3.4,1.9V4.1
			C11.1,3.9,12.3,3,13.4,1.7z M6.3,3.4c0.5,0.4,2.2,1.7,3.8,2.1v2.9H5.7V7.4c0-0.1,0-1.6-1.7-2.9C4.6,4,5.7,3.6,6.3,3.4z M3.6,4.9
			C5.1,6,5.1,7.3,5.1,7.4v1.2C5.1,8.7,5,8.9,5,9.1L3.4,8.5C3.2,7.1,3.2,5.6,3.6,4.9z M3.3,9.1l1.6,0.6c-0.1,0.9,0.1,1.7,0.2,2
			c-0.1,0.1-0.1,0.4-0.2,0.8l-1.7-0.7C3.1,10.8,3.2,9.7,3.3,9.1z M3.2,14.3c0-0.4,0-1.3,0.1-1.9l1.6,0.7c0,0.5,0,1.1,0.2,1.7
			c0,0.2-0.1,0.7-0.1,1.1L4,15.5C3.4,15.3,3.2,14.6,3.2,14.3z M3.8,17c-0.1-0.1-0.2-0.2-0.2-0.3c0,0,0,0,0,0l0-0.7
			c0.1,0,0.1,0.1,0.2,0.1l1.1,0.5c0.1,0.4,0.2,0.8,0.5,1.1c0.1,0.1,0.2,0.2,0.3,0.2L3.8,17z M10.1,18.8H6.4c0,0,0,0,0,0v-0.7
			c0.1,0,0.2,0,0.4,0h3.4L10.1,18.8L10.1,18.8z M10.1,17.6H6.7c-0.7,0-1.3-0.6-1.3-1.3c0-0.4,0.1-0.9,0.1-1.2h4.5V17.6z M10.1,14.5
			H5.6c-0.3-1.1,0-2.1,0.1-2.5h4.4V14.5z M10.1,11.4H5.6c-0.1-0.4-0.4-1.5,0-2.5h4.4V11.4z M10.1,4.8C8.7,4.5,7.2,3.4,6.7,3l0.6-1.3
			c0,0,0,0,0,0C8.4,3,9.7,3.9,10.1,4.1V4.8z M7.9,1.5h4.8c-0.9,1.1-2,1.9-2.4,2.1C10,3.4,8.9,2.6,7.9,1.5z M14.4,18.8
			C14.4,18.8,14.4,18.8,14.4,18.8l-3.7,0v-0.7H14c0.1,0,0.3,0,0.4,0L14.4,18.8L14.4,18.8z M14,17.6h-3.4v-2.5h4.5
			c0,0.3,0.1,0.8,0.1,1.2C15.3,17,14.7,17.6,14,17.6z M17,17L15,17.8c0.1-0.1,0.2-0.2,0.3-0.2c0.3-0.3,0.5-0.7,0.5-1.1l1.1-0.5
			c0.1,0,0.1,0,0.1-0.1l0,0.7C17.2,16.8,17.1,16.9,17,17z M17.5,14.3c0,0.3-0.2,1-0.8,1.2l-0.9,0.4c0-0.4-0.1-0.9-0.1-1.1
			c0.2-0.6,0.2-1.2,0.2-1.7l1.6-0.7C17.5,13,17.5,13.9,17.5,14.3z M17.5,11.8l-1.7,0.7c-0.1-0.4-0.2-0.7-0.2-0.8
			c0.1-0.3,0.3-1,0.2-2l1.6-0.6C17.5,9.7,17.7,10.8,17.5,11.8z"/>
	</g>
</g>
<g id="Layer_5" class="st0">
	<g class="st1">
		<g>
			<path d="M16.3,11.2C16.3,11.2,16.3,11.1,16.3,11.2c0-0.1,0-0.1,0-0.1c-0.1-0.4-0.2-0.8-0.3-1.2c0,0,0,0,0,0
				c-0.3-0.9-0.6-1.8-1.1-2.5c0,0-0.2-0.3-0.5-0.6c0,0,0-0.1-0.1-0.1c0,0,0,0,0-0.1c0,0-0.1-0.1-0.1-0.1c0,0,0-0.1-0.1-0.1
				c0,0-0.1-0.1-0.1-0.1c0,0-0.1-0.1-0.1-0.1c0,0-0.1-0.1-0.1-0.1c0,0-0.1-0.1-0.1-0.1c0,0-0.1-0.1-0.1-0.1c0,0-0.1-0.1-0.1-0.1
				c0,0-0.1-0.1-0.1-0.1c0,0-0.1-0.1-0.1-0.1c0,0-0.1,0-0.1-0.1c0,0-0.1,0-0.1-0.1c0,0,0,0,0,0l-0.2-2.2c-0.2-1.5-1.5-2.6-3-2.6
				S7.2,1.8,7,3.3L6.8,5.5c0,0-0.1,0.1-0.1,0.1c0,0,0,0,0,0c0,0-0.1,0.1-0.1,0.1c0,0,0,0-0.1,0.1c0,0-0.1,0.1-0.1,0.1
				C6.3,6,6.3,6,6.2,6c0,0-0.1,0.1-0.1,0.1c0,0-0.1,0.1-0.1,0.1C6,6.2,6,6.3,6,6.3c0,0-0.1,0.1-0.1,0.1c0,0,0,0-0.1,0.1
				c0,0-0.1,0.1-0.1,0.1c0,0,0,0,0,0c0,0,0,0.1-0.1,0.1c0,0,0,0,0,0.1c0,0,0,0-0.1,0.1C5.3,7.1,5.1,7.3,5.1,7.3c0,0,0,0,0,0
				c0,0,0,0,0,0c-2.2,3.4-2,10.6-1.9,11.6c0,0.1,0,0.1,0,0.1c0,0.2,0.1,0.3,0.3,0.3h0h1.2h0c0.1,0,0.2-0.1,0.3-0.2l0.8-1.9
				c0,0,0.1,0.1,0.1,0.1v1.4c0,0.3,0.3,0.6,0.6,0.6h6.8c0.3,0,0.6-0.3,0.6-0.6v-1.4c0.1,0,0.1-0.1,0.2-0.1l0.8,1.9
				c0,0.1,0.2,0.2,0.3,0.2h1.2c0,0,0.1,0,0.1,0c0,0,0,0,0,0c0,0,0,0,0.1,0c0,0,0,0,0,0c0,0,0,0,0-0.1c0,0,0,0,0,0c0,0,0,0,0-0.1
				C16.8,18.8,17,14.8,16.3,11.2z M5.2,17.2H3.8c0-0.1,0-0.2,0-0.3l1.5-0.6c0,0.2,0,0.4,0,0.6L5.2,17.2z M5.2,12.2
				c0,0.1,0,0.1,0,0.2c0,0.4,0,0.8,0,1.3l-1.3,0.5c0.2-2.1,0.6-4.5,1.5-6.1C5.3,8.9,5.2,10.2,5.2,12.2z M13.1,9.4
				c0.2,0,0.3-0.1,0.3-0.3V6.6c0,0,0.1,0.1,0.1,0.1c0,0,0,0,0,0c0,0,0.1,0.1,0.1,0.1c0,0,0,0,0,0c0,0,0,0.1,0.1,0.1c0,0,0,0,0,0
				c0,0,0,0.1,0.1,0.1c0,0.2,0.2,0.9,0.3,3.2L12.2,11c0-1.5,0.3-3,0.6-4.2v2.3C12.8,9.2,12.9,9.4,13.1,9.4z M5.9,12.1
				c0-0.1,0-0.3,0-0.4c0-3.5,0.3-4.5,0.3-4.7c0,0,0,0,0.1-0.1c0,0,0,0,0,0c0,0,0-0.1,0.1-0.1c0,0,0,0,0,0c0,0,0.1-0.1,0.1-0.1
				c0,0,0,0,0,0c0,0,0.1-0.1,0.1-0.1v2.5c0,0.2,0.1,0.3,0.3,0.3s0.3-0.1,0.3-0.3V6.8c0.4,1.4,0.6,3,0.6,4.8c0,0.4,0,0.8,0,1.2
				l-1.9,0.7C5.9,13,5.9,12.5,5.9,12.1z M6.9,17.2C6.9,17.2,6.9,17.2,6.9,17.2c-0.1,0-0.2-0.1-0.2-0.1c0,0,0,0,0,0
				c-0.3-0.2-0.5-0.4-0.7-0.6c0-0.2,0-0.3,0-0.4l1.5-0.6C7.3,16,7.1,16.6,6.9,17.2z M11.9,17.5H8.1c-0.2,0-0.4,0-0.6-0.1
				c0.3-0.8,0.5-1.7,0.7-2.7c0-0.1,0-0.3,0.1-0.4c0.1-0.9,0.2-1.8,0.2-2.8c0-2.3-0.4-4.4-1-6l0.2-2.2c0.2-1.2,1.2-2,2.3-2
				s2.2,0.9,2.3,2l0.2,2.2c-0.6,1.6-1,3.7-1,6c0,0.3,0,0.6,0,0.9c0,0,0,0,0,0c0,0.3,0,0.6,0.1,0.9v0v0c0.1,1.5,0.4,2.9,0.9,4.1
				C12.3,17.4,12.1,17.5,11.9,17.5z M14.1,16.4c-0.2,0.2-0.4,0.4-0.6,0.6c0,0,0,0,0,0c0,0,0,0-0.1,0c0,0-0.1,0-0.1,0.1
				c-0.1,0-0.1,0.1-0.2,0.1c0,0,0,0,0,0h0c-0.4-1.1-0.7-2.3-0.8-3.7l1.9-0.7C14.1,13.8,14.1,15,14.1,16.4z M14.6,8.1
				C14.6,8.1,14.6,8.1,14.6,8.1c0.3,0.5,0.5,1,0.7,1.6L14.7,10c0-0.2,0-0.4,0-0.5c0,0,0,0,0,0C14.7,8.9,14.7,8.5,14.6,8.1
				C14.6,8.2,14.6,8.1,14.6,8.1z M14.8,17.2l-0.2-0.4c0.1-1.7,0.1-3.1,0.1-4.3l1.1-0.4c0.3,1.8,0.4,3.7,0.4,5.1L14.8,17.2L14.8,17.2
				z"/>
			<path d="M11.9,5.2l-0.2-1.8c-0.1-0.9-0.9-1.5-1.7-1.5c-0.9,0-1.6,0.6-1.7,1.5L8,5.2C8,5.7,8.1,6.2,8.4,6.6C8.8,7,9.2,7.2,9.7,7.2
				h0.5c0.5,0,1-0.2,1.3-0.6C11.9,6.2,12,5.7,11.9,5.2z"/>
			<path class="st4" d="M11.7,5.2l-0.2-1.6c-0.1-0.8-0.8-1.4-1.5-1.4c-0.8,0-1.4,0.6-1.5,1.4L8.2,5.2C8.2,5.6,8.3,6.1,8.6,6.4
				c0.3,0.3,0.7,0.5,1.2,0.5h0.4c0.4,0,0.9-0.2,1.2-0.5C11.7,6.1,11.8,5.6,11.7,5.2z"/>
		</g>
	</g>
</g>
<g id="Layer_6" class="st0">
	<g class="st1">
		<path class="st2" d="M17.6,15.5c0-6.9-0.3-9.6-0.5-11.1l0-0.2c-0.1-0.5-0.4-0.9-0.8-1l-2.3-0.7V1.8c0-0.3-0.3-0.6-0.6-0.6H6.7
			c-0.3,0-0.6,0.3-0.6,0.6v0.7L3.8,3.2C3.3,3.3,3,3.7,3,4.2l0,0.2C2.8,5.8,2.4,8.5,2.4,15.5c0,0.2,0.1,0.3,0.2,0.4
			c0,0,0.1,0.1,0.1,0.1v0.7c0,0.3,0.3,0.6,0.6,0.6h1.3c0.1,0.1,0.1,0.2,0.2,0.2v0.7c0,0.3,0.3,0.6,0.6,0.6h9.1
			c0.3,0,0.6-0.3,0.6-0.6v-0.7c0.1-0.1,0.2-0.1,0.2-0.2h1.3c0.3,0,0.6-0.3,0.6-0.6V16c0,0,0.1-0.1,0.1-0.1
			C17.5,15.8,17.6,15.6,17.6,15.5z M17,15.5C17,15.5,17,15.5,17,15.5C17,15.5,17,15.5,17,15.5l-1.6,0V7.1c0-0.2,0-0.5,0.1-0.7
			l0.9-2.3c0,0,0,0.1,0,0.1l0,0.2C16.7,5.9,17,8.5,17,15.5z M5.1,17C5.1,17,5.1,17,5.1,17l0-9.9c0-0.3-0.1-0.6-0.2-0.9L4,3.7
			c0,0,0,0,0,0L6.3,3l2.2,1.5c0,0,0,0,0,0v2.8C8.1,7.5,7.9,7.8,7.9,8.2v0.6c0,0.2,0.1,0.3,0.3,0.3h1.2c0.2,0,0.3-0.1,0.3-0.3V8.2
			c0-0.4-0.3-0.7-0.6-0.8V4.9l0.8,0.5c0,0,0,0,0,0c0,0,0,0,0,0c0,0,0,0,0,0c0,0,0,0,0,0c0,0,0,0,0,0c0,0,0,0,0,0c0,0,0,0,0,0
			c0,0,0,0,0,0c0,0,0,0,0,0c0,0,0,0,0,0c0,0,0,0,0,0c0,0,0,0,0,0c0,0,0,0,0,0c0,0,0,0,0,0c0,0,0,0,0,0c0,0,0,0,0,0c0,0,0,0,0,0
			c0,0,0,0,0,0c0,0,0,0,0,0l0.8-0.5v2.5c-0.4,0.1-0.6,0.5-0.6,0.8v0.6c0,0.2,0.1,0.3,0.3,0.3h1.2c0.2,0,0.3-0.1,0.3-0.3V8.2
			c0-0.4-0.3-0.7-0.6-0.8V4.5c0,0,0,0,0,0L13.7,3L16,3.7c0,0,0,0,0,0l-1,2.5c-0.1,0.3-0.2,0.6-0.2,0.9V17c0,0,0,0,0,0H5.1z
			 M11.2,7.9c0.2,0,0.3,0.1,0.3,0.3v0.3h-0.6V8.2C10.9,8,11,7.9,11.2,7.9z M10.4,4.5c0.1-0.4,0.4-0.8,0.8-1l2.2-1.3v0.3L10.4,4.5z
			 M10.9,3.1C10.5,3.3,10.2,3.6,10,4C9.8,3.6,9.5,3.3,9.1,3.1L6.9,1.8h6.2L10.9,3.1z M8.8,7.9C9,7.9,9.1,8,9.1,8.2v0.3H8.5V8.2
			C8.5,8,8.6,7.9,8.8,7.9z M6.6,2.6V2.3l2.2,1.3c0.4,0.2,0.7,0.6,0.8,1L6.6,2.6z M3.5,4.5l0-0.2c0,0,0-0.1,0-0.1l0.9,2.3
			c0.1,0.2,0.1,0.4,0.1,0.7v8.4H3c0,0,0,0,0,0c0,0,0,0,0,0C3,8.5,3.3,5.9,3.5,4.5z M3.3,16.7V16h1.3v0.6L3.3,16.7
			C3.3,16.7,3.3,16.7,3.3,16.7z M14.6,18.2H5.4c0,0,0,0,0,0v-0.6h9.1L14.6,18.2C14.6,18.2,14.6,18.2,14.6,18.2z M16.7,16.7h-1.2V16
			h1.3L16.7,16.7C16.7,16.7,16.7,16.7,16.7,16.7z"/>
		<path class="st2" d="M12.7,11.7c0-0.1-0.1-0.2-0.3-0.2H7.6c-0.1,0-0.2,0.1-0.3,0.2l-0.9,3.3c0,0,0,0,0,0.1v0.9
			c0,0.2,0.1,0.3,0.3,0.3h6.7c0.2,0,0.3-0.1,0.3-0.3v-0.9c0,0,0-0.1,0-0.1L12.7,11.7z M13.1,15.8H6.9v-0.6l0.8-3.1h4.4l0.8,3.1
			L13.1,15.8L13.1,15.8z"/>
	</g>
</g>
<g id="Layer_7" class="st0">
	<g class="st1">
		<path d="M18,13.6h-3.1c-0.2,0-0.5-0.1-0.6-0.3L13.2,12c-0.2-0.2-0.2-0.5,0-0.6l1.1-1.3c0.1-0.2,0.4-0.3,0.6-0.3H18
			c0.2,0,0.4,0.2,0.4,0.4v3C18.4,13.4,18.2,13.6,18,13.6L18,13.6z M14.9,10c-0.1,0-0.3,0.1-0.4,0.2l-1.1,1.3c-0.1,0.1-0.1,0.2,0,0.3
			l1.1,1.3c0.1,0.1,0.3,0.2,0.4,0.2H18c0.1,0,0.1-0.1,0.1-0.1v-3c0-0.1-0.1-0.1-0.1-0.1H14.9z"/>
		<path d="M15.6,12.7c-0.6,0-1-0.5-1-1c0-0.6,0.5-1,1-1c0.6,0,1,0.5,1,1C16.7,12.2,16.2,12.7,15.6,12.7z M15.6,10.9
			c-0.4,0-0.7,0.3-0.7,0.7c0,0.4,0.3,0.7,0.7,0.7s0.7-0.3,0.7-0.7C16.4,11.3,16,10.9,15.6,10.9z"/>
		<path d="M15.6,12.1c-0.2,0-0.4-0.2-0.4-0.4c0-0.2,0.2-0.4,0.4-0.4c0.2,0,0.4,0.2,0.4,0.4C16.1,11.9,15.9,12.1,15.6,12.1z
			 M15.6,11.5c-0.1,0-0.1,0.1-0.1,0.1s0.1,0.1,0.1,0.1c0.1,0,0.1-0.1,0.1-0.1S15.7,11.5,15.6,11.5z"/>
		<path d="M14.9,5L14.9,5 M17.4,8c-0.1,0-0.1-0.1-0.1-0.1c0-0.7-0.6-1.3-1.3-1.3c-0.1,0-0.1-0.1-0.1-0.1c0-0.1,0.1-0.1,0.1-0.1
			c0.9,0,1.6,0.7,1.6,1.6C17.5,7.9,17.5,8,17.4,8C17.4,8,17.4,8,17.4,8z"/>
		<path d="M15.9,17.4h-13c-0.1,0-0.1-0.1-0.1-0.1c0-0.1,0.1-0.1,0.1-0.1h13c0.7,0,1.3-0.6,1.3-1.3c0-0.1,0.1-0.1,0.1-0.1
			s0.1,0.1,0.1,0.1C17.5,16.7,16.8,17.4,15.9,17.4L15.9,17.4z"/>
		<path d="M17.4,6.7c-0.1,0-0.1-0.1-0.1-0.1V6c0-0.7-0.6-1.3-1.3-1.3c-0.1,0-0.1-0.1-0.1-0.1s0.1-0.1,0.1-0.1c0.9,0,1.6,0.7,1.6,1.6
			v0.5C17.5,6.6,17.5,6.7,17.4,6.7C17.4,6.7,17.4,6.7,17.4,6.7z"/>
		<path d="M2.9,6.5c-0.6,0-1-0.5-1-1c0-0.1,0.1-0.1,0.1-0.1c0.1,0,0.1,0.1,0.1,0.1c0,0.4,0.3,0.7,0.7,0.7C3,6.2,3,6.3,3,6.3
			c0,0,0,0,0,0C3,6.4,3,6.5,2.9,6.5L2.9,6.5z"/>
		<path d="M2.9,17.4c-0.6,0-1-0.5-1-1c0-0.1,0.1-0.1,0.1-0.1c0.1,0,0.1,0.1,0.1,0.1c0,0.4,0.3,0.7,0.7,0.7C3,17.1,3,17.2,3,17.3
			C3,17.4,3,17.4,2.9,17.4z"/>
		<path d="M2,5.6c-0.1,0-0.1-0.1-0.1-0.1c0-0.6,0.5-1,1-1C3,4.4,3,4.5,3,4.6c0,0,0,0,0,0C3,4.6,3,4.7,2.9,4.7C2.5,4.7,2.2,5,2.2,5.5
			C2.2,5.5,2.1,5.6,2,5.6C2,5.6,2,5.6,2,5.6z"/>
		<path d="M15.9,6.5h-13c-0.1,0-0.1-0.1-0.1-0.1c0-0.1,0.1-0.1,0.1-0.1h13c0.1,0,0.1,0.1,0.1,0.1c0,0,0,0,0,0
			C16.1,6.4,16,6.5,15.9,6.5C15.9,6.5,15.9,6.5,15.9,6.5z"/>
		<path d="M15.6,5.6H3.2C3.1,5.6,3,5.5,3,5.5c0-0.1,0.1-0.1,0.1-0.1h12.4c0.1,0,0.1,0.1,0.1,0.1C15.8,5.5,15.7,5.6,15.6,5.6z"/>
		<path d="M2,16.6c-0.1,0-0.1-0.1-0.1-0.1v-11c0-0.1,0.1-0.1,0.1-0.1c0.1,0,0.1,0.1,0.1,0.1v11C2.2,16.5,2.1,16.6,2,16.6z"/>
		<path d="M15.9,4.7h-0.3c-0.1,0-0.1-0.1-0.1-0.1c0,0,0,0,0,0c0-0.1,0.1-0.1,0.1-0.1h0.3c0.1,0,0.1,0.1,0.1,0.1c0,0,0,0,0,0
			C16.1,4.6,16,4.7,15.9,4.7z"/>
		<path d="M3.5,4.7H2.9c-0.1,0-0.1-0.1-0.1-0.1c0-0.1,0.1-0.1,0.1-0.1h0.6c0.1,0,0.1,0.1,0.1,0.1c0,0,0,0,0,0
			C3.6,4.6,3.6,4.7,3.5,4.7z"/>
		<path d="M3.5,7.4H3.2C3.1,7.4,3,7.3,3,7.2c0-0.1,0.1-0.1,0.1-0.1h0.3c0.1,0,0.1,0.1,0.1,0.1c0,0,0,0,0,0C3.6,7.3,3.6,7.4,3.5,7.4z
			 M15,7.4h-0.6c-0.1,0-0.1-0.1-0.1-0.1c0,0,0,0,0,0c0-0.1,0.1-0.1,0.1-0.1H15c0.1,0,0.1,0.1,0.1,0.1C15.2,7.3,15.1,7.4,15,7.4z
			 M13.9,7.4h-0.6c-0.1,0-0.1-0.1-0.1-0.1c0,0,0,0,0,0c0-0.1,0.1-0.1,0.1-0.1h0.6C14,7.1,14,7.1,14,7.2C14,7.3,14,7.4,13.9,7.4z
			 M12.7,7.4h-0.6c-0.1,0-0.1-0.1-0.1-0.1c0-0.1,0.1-0.1,0.1-0.1h0.6c0.1,0,0.1,0.1,0.1,0.1C12.9,7.3,12.8,7.4,12.7,7.4z M11.6,7.4
			H11c-0.1,0-0.1-0.1-0.1-0.1c0-0.1,0.1-0.1,0.1-0.1h0.6c0.1,0,0.1,0.1,0.1,0.1C11.7,7.3,11.7,7.4,11.6,7.4z M10.4,7.4H9.8
			c-0.1,0-0.1-0.1-0.1-0.1c0-0.1,0.1-0.1,0.1-0.1h0.6c0.1,0,0.1,0.1,0.1,0.1c0,0,0,0,0,0C10.6,7.3,10.5,7.4,10.4,7.4L10.4,7.4z
			 M9.3,7.4H8.7c-0.1,0-0.1-0.1-0.1-0.1c0-0.1,0.1-0.1,0.1-0.1h0.6c0.1,0,0.1,0.1,0.1,0.1C9.4,7.3,9.3,7.4,9.3,7.4z M8.1,7.4H7.5
			c-0.1,0-0.1-0.1-0.1-0.1c0-0.1,0.1-0.1,0.1-0.1h0.6c0.1,0,0.1,0.1,0.1,0.1C8.3,7.3,8.2,7.4,8.1,7.4z M7,7.4H6.4
			c-0.1,0-0.1-0.1-0.1-0.1c0-0.1,0.1-0.1,0.1-0.1H7c0.1,0,0.1,0.1,0.1,0.1C7.1,7.3,7,7.4,7,7.4z M5.8,7.4H5.2
			c-0.1,0-0.1-0.1-0.1-0.1c0-0.1,0.1-0.1,0.1-0.1h0.6c0.1,0,0.1,0.1,0.1,0.1c0,0,0,0,0,0C5.9,7.3,5.9,7.4,5.8,7.4z M4.6,7.4H4.1
			C4,7.4,3.9,7.3,3.9,7.2c0-0.1,0.1-0.1,0.1-0.1h0.6c0.1,0,0.1,0.1,0.1,0.1c0,0,0,0,0,0C4.8,7.3,4.7,7.4,4.6,7.4L4.6,7.4z M15.9,7.4
			h-0.3c-0.1,0-0.1-0.1-0.1-0.1c0,0,0,0,0,0c0-0.1,0.1-0.1,0.1-0.1h0.3c0.1,0,0.1,0.1,0.1,0.1c0,0,0,0,0,0C16.1,7.3,16,7.4,15.9,7.4
			z"/>
		<path d="M3.5,16.6H3.2c-0.1,0-0.1-0.1-0.1-0.1s0.1-0.1,0.1-0.1h0.3c0.1,0,0.1,0.1,0.1,0.1S3.6,16.6,3.5,16.6z M15,16.6h-0.6
			c-0.1,0-0.1-0.1-0.1-0.1s0.1-0.1,0.1-0.1H15c0.1,0,0.1,0.1,0.1,0.1S15.1,16.6,15,16.6z M13.9,16.6h-0.6c-0.1,0-0.1-0.1-0.1-0.1
			s0.1-0.1,0.1-0.1h0.6c0.1,0,0.1,0.1,0.1,0.1S14,16.6,13.9,16.6z M12.7,16.6h-0.6c-0.1,0-0.1-0.1-0.1-0.1s0.1-0.1,0.1-0.1h0.6
			c0.1,0,0.1,0.1,0.1,0.1S12.8,16.6,12.7,16.6z M11.6,16.6H11c-0.1,0-0.1-0.1-0.1-0.1s0.1-0.1,0.1-0.1h0.6c0.1,0,0.1,0.1,0.1,0.1
			S11.7,16.6,11.6,16.6z M10.4,16.6H9.8c-0.1,0-0.1-0.1-0.1-0.1s0.1-0.1,0.1-0.1h0.6c0.1,0,0.1,0.1,0.1,0.1S10.5,16.6,10.4,16.6
			L10.4,16.6z M9.3,16.6H8.7c-0.1,0-0.1-0.1-0.1-0.1s0.1-0.1,0.1-0.1h0.6c0.1,0,0.1,0.1,0.1,0.1S9.3,16.6,9.3,16.6z M8.1,16.6H7.5
			c-0.1,0-0.1-0.1-0.1-0.1s0.1-0.1,0.1-0.1h0.6c0.1,0,0.1,0.1,0.1,0.1S8.2,16.6,8.1,16.6z M7,16.6H6.4c-0.1,0-0.1-0.1-0.1-0.1
			s0.1-0.1,0.1-0.1H7c0.1,0,0.1,0.1,0.1,0.1S7,16.6,7,16.6z M5.8,16.6H5.2c-0.1,0-0.1-0.1-0.1-0.1s0.1-0.1,0.1-0.1h0.6
			c0.1,0,0.1,0.1,0.1,0.1S5.9,16.6,5.8,16.6z M4.6,16.6H4.1c-0.1,0-0.1-0.1-0.1-0.1s0.1-0.1,0.1-0.1h0.6c0.1,0,0.1,0.1,0.1,0.1
			S4.7,16.6,4.6,16.6L4.6,16.6z M15.9,16.6h-0.3c-0.1,0-0.1-0.1-0.1-0.1s0.1-0.1,0.1-0.1h0.3c0.1,0,0.1,0.1,0.1,0.1
			S16,16.6,15.9,16.6z"/>
		<path d="M17.4,9.5c-0.1,0-0.1-0.1-0.1-0.1V7.8c0-0.1,0.1-0.1,0.1-0.1c0.1,0,0.1,0.1,0.1,0.1v1.5C17.5,9.4,17.5,9.5,17.4,9.5z"/>
		<path d="M17.4,16c-0.1,0-0.1-0.1-0.1-0.1V14c0-0.1,0.1-0.1,0.1-0.1c0.1,0,0.1,0.1,0.1,0.1v1.8C17.5,15.9,17.5,16,17.4,16
			C17.4,16,17.4,16,17.4,16z"/>
	</g>
</g>
<g id="Layer_8">
	<g>
		<g>
			<g>
				<circle class="st2" cx="4" cy="9.2" r="0.3"/>
				<circle class="st2" cx="5.2" cy="9.2" r="0.3"/>
				<path class="st2" d="M19.3,10.1L19,9.4c0,0,0,0,0,0c0-0.1-0.1-0.3-0.2-0.4c-0.5-0.5-1.5-0.8-3.3-0.8c0,0,0,0,0,0
					c0,0-0.1,0-0.1,0c0,0-0.1,0-0.1,0c0,0-0.1,0-0.1,0c0,0-0.1,0-0.1,0c0,0,0,0,0,0l-1.4-0.7l0,0c0.1-0.1,0-0.3-0.1-0.4
					c-0.1-0.1-0.3,0-0.4,0.1l0,0.1L12.4,7l0,0c0.1-0.1,0-0.3-0.1-0.4c-0.1-0.1-0.3,0-0.4,0.1l-0.1,0.1l-0.7-0.3l0-0.1
					c0.1-0.1,0-0.3-0.1-0.4c-0.1-0.1-0.3,0-0.4,0.1l-0.1,0.1L10,5.9L10,5.8c0.1-0.1,0-0.3-0.1-0.4c-0.1-0.1-0.3,0-0.4,0.1L9.4,5.6
					L8.6,5.2c-0.1-0.1-0.3,0-0.4,0.1c0,0-0.1,0.1-0.1,0.1c0,0,0,0,0,0c0,0,0,0.1-0.1,0.1c0,0,0,0,0,0c0,0,0,0,0,0
					C7.8,5.8,7.6,6,7.4,6.2C7.2,6.4,7.1,6.5,7,6.6C6.8,6.7,6.6,6.8,6.3,6.9C5.3,7.3,4.2,7.2,3,6.6c0,0,0,0,0,0c0,0-0.1,0-0.1,0
					c0,0-0.1,0-0.1,0c0,0,0,0-0.1,0c0,0-0.1,0-0.1-0.1c0,0,0,0,0,0c0,0-0.1,0-0.1,0C2.2,6.3,1.9,5.9,1.9,5.6c0-0.2-0.1-0.3-0.3-0.3
					S1.3,5.5,1.3,5.6c0,0.5,0.3,1,0.7,1.2C2,7,2,7.1,2,7.2C1.9,7.6,1.8,8.1,1.7,8.5c0,0.1,0,0.1,0,0.1c-0.2,1-0.3,1.6-0.4,1.7
					c0,0,0,0,0,0.1c0,0,0,0,0,0c0,0,0,0,0,0v1.8c0,0.2,0.1,0.3,0.3,0.3c0,0,0,0,0.2,0c0.2,0,0.3,0,0.5,0c0.5,0,1.1,0,1.8,0
					c1.9,0,3.7,0.1,5.5,0.1c0.9,0,1.8,0,2.6,0.1c0.5,0,1,0,1.5,0c2.5,0.1,4.2-0.4,5.3-1.2C19.4,11.4,19.5,10.7,19.3,10.1z M2.7,7.2
					c0,0,0.1,0,0.1,0.1c0,0,0,0,0,0C4.5,8,6,7.9,7.3,7.1C7.4,7,7.6,6.9,7.7,6.8l-1.1,3.7c-0.6,0-1.2-0.1-1.8-0.1
					c-0.8,0-1.6-0.1-2.3-0.1c-0.2,0-0.4,0-0.5,0c0.1-0.3,0.2-0.8,0.3-1.4c0-0.1,0-0.1,0-0.1c0.1-0.4,0.2-0.9,0.3-1.3
					c0-0.1,0-0.1,0-0.2C2.6,7.1,2.7,7.2,2.7,7.2C2.7,7.2,2.7,7.2,2.7,7.2z M15.2,8.9C15.2,8.9,15.2,8.9,15.2,8.9c0.1,0,0.1,0,0.1,0
					c0,0,0,0,0.1,0c1.7,0,2.6,0.2,2.9,0.6c0.1,0.1,0.1,0.2,0.1,0.3c-0.4,0.3-1.6,0.6-3.5,0.7l0,0L15.2,8.9z M8.7,7.4
					c0.1,0.1,0.3,0,0.4-0.1l0.5-0.9l0.7,0.3L9.8,7.6C9.7,7.7,9.8,7.9,9.9,8c0.1,0.1,0.3,0,0.4-0.1L10.9,7l0.7,0.3L11,8.2
					c-0.1,0.1,0,0.3,0.1,0.4c0.1,0.1,0.3,0,0.4-0.1l0.6-0.9l0.7,0.3l-0.6,0.9c-0.1,0.1,0,0.3,0.1,0.4c0.1,0.1,0.3,0,0.4-0.1l0.6-1
					l1.3,0.6l-0.3,1.8c-1.2,0.1-2.5,0.1-4.1,0.1c-1,0-2,0-3.1-0.1l1.4-4.6l0.5,0.2L8.6,7C8.5,7.1,8.6,7.3,8.7,7.4z M18.5,11.2
					c-1,0.7-2.5,1.1-4.9,1c-0.5,0-0.9,0-1.5,0c-0.8,0-1.7,0-2.6-0.1c-1.7,0-3.6-0.1-5.5-0.1c-0.7,0-1.3,0-1.8,0c-0.2,0-0.3,0-0.4,0
					v-1.2c0.2,0,0.4,0,0.6,0c0.7,0,1.5,0.1,2.3,0.1c1.9,0.1,3.7,0.2,5.5,0.2c0.4,0,0.8,0,1.2,0c0,0,0,0,0,0c0.1,0,0.1,0,0.2,0
					c0,0,0,0,0,0c0.1,0,0.1,0,0.2,0c0,0,0,0,0,0c0.4,0,0.8,0,1.1,0c0,0,0,0,0,0c0,0,0.1,0,0.1,0c0,0,0,0,0,0c0,0,0.1,0,0.1,0
					c0,0,0,0,0.1,0c0,0,0.1,0,0.1,0c0,0,0,0,0.1,0c0,0,0.1,0,0.1,0c0,0,0,0,0.1,0c0,0,0.1,0,0.1,0c0,0,0,0,0.1,0c0,0,0.1,0,0.1,0
					c0,0,0,0,0.1,0c0,0,0.1,0,0.1,0c0,0,0,0,0.1,0c0,0,0.1,0,0.1,0c0,0,0,0,0.1,0c0,0,0.1,0,0.1,0c0,0,0.1,0,0.1,0c0,0,0.1,0,0.1,0
					c0,0,0.1,0,0.1,0c0,0,0,0,0.1,0c0,0,0.1,0,0.1,0c0,0,0,0,0.1,0c0,0,0.1,0,0.1,0c0,0,0,0,0.1,0c0,0,0.1,0,0.1,0c0,0,0,0,0.1,0
					c0,0,0.1,0,0.1,0c0,0,0,0,0.1,0c0,0,0.1,0,0.1,0c0,0,0,0,0.1,0c0,0,0.1,0,0.1,0c0,0,0,0,0.1,0c0,0,0.1,0,0.1,0c0,0,0,0,0,0
					c0,0,0.1,0,0.1,0c0,0,0,0,0,0c0,0,0.1,0,0.1,0c0,0,0,0,0,0c0.1,0,0.2,0,0.3,0c0,0,0,0,0,0c0,0,0.1,0,0.1,0c0,0,0,0,0,0
					c0,0,0.1,0,0.1,0c0,0,0,0,0,0c0,0,0.1,0,0.1,0c0,0,0,0,0,0c0,0,0.1,0,0.1,0c0,0,0,0,0,0c0,0,0.1,0,0.1,0c0,0,0,0,0,0
					c0,0,0.1,0,0.1,0c0,0,0,0,0,0c0,0,0.1,0,0.1,0c0,0,0,0,0,0c0,0,0.1,0,0.1,0c0,0,0,0,0,0c0.1,0,0.3-0.1,0.4-0.1c0,0,0,0,0,0
					c0,0,0.1,0,0.1,0c0,0,0,0,0,0c0,0,0,0,0.1,0c0,0,0,0,0,0c0,0,0,0,0.1,0c0,0,0,0,0,0c0,0,0,0,0.1,0c0,0,0,0,0,0c0,0,0,0,0.1,0
					c0,0,0,0,0,0c0,0,0,0,0.1,0c0,0,0,0,0,0c0,0,0,0,0.1,0c0,0,0,0,0,0c0.1,0,0.1-0.1,0.2-0.1c0,0,0,0,0,0c0,0,0,0,0.1,0
					c0,0,0,0,0,0c0,0,0,0,0,0c0,0,0,0,0,0c0,0,0,0,0,0l0,0C18.9,10.7,18.8,11,18.5,11.2z"/>
			</g>
		</g>
	</g>
</g>
</svg>
