<?xml version="1.0" encoding="utf-8"?>
<!-- Generator: Adobe Illustrator 19.1.0, SVG Export Plug-In . SVG Version: 6.00 Build 0)  -->
<!DOCTYPE svg PUBLIC "-//W3C//DTD SVG 1.1//EN" "http://www.w3.org/Graphics/SVG/1.1/DTD/svg11.dtd">
<svg version="1.1" id="Layer_1" xmlns="http://www.w3.org/2000/svg" xmlns:xlink="http://www.w3.org/1999/xlink" x="0px" y="0px"
	 viewBox="365.9 277.1 60.1 58.1" style="enable-background:new 365.9 277.1 60.1 58.1;" xml:space="preserve">
<style type="text/css">
	.st0{fill:#2B3466;}
</style>
<g>
	<path class="st0" d="M380.9,303.9c-1-1.6-2.6-2.7-5.3-2.6c1-1.9,3.2-2.7,6.1-3c-2.1-1.5-4.8-1.8-7.5,0.6c-0.4-1.3,1.3-4.6,2.5-7.6
		c-3.3,0.8-5,3.9-5,9.3c-1.5-1.5-2.2-3.9-2.1-7c-2.1,3.7-1.9,6.9,0.6,9.7c-2.2,0.7-3.6,3-4.3,4.9c1.2-0.9,2.8-2.6,4.4-2
		c-0.2,2.4,0.4,4.5,1.8,6c-0.5-1.7-0.4-3.4,0-5.1c1,3.8,3.3,5.8,6.1,6.9c-2.5-2.2-4.9-6.1-4.5-10.4
		C375.9,302.4,378.9,303.2,380.9,303.9z"/>
	<path class="st0" d="M413.7,283.6c4.6-0.9,8.9-0.6,12.3,2.3c-2.8-4.2-7-6.8-14.7-5.3c0.3-1.7,1.4-2.7,3.4-3.1
		c-2.8-1.1-5.3-0.1-7.6,2.5c-2.5-1.9-6.1-1.9-10.2-0.7c2.9,0.2,5.3,1.3,7.2,3.5c-5.2,0-8.6,3.3-10.7,9c4.3-3,9.1-4.7,14.4-4.9
		c2.4,3.2,1.8,7.1-0.3,11.2c4.1-0.8,7-3,6.4-9.4c4-0.4,6.6,1.4,8.3,4.8C422.5,288.7,419.5,285.4,413.7,283.6z"/>
	<path class="st0" d="M396.9,303.3c2.4-6.2,6-11.6,10.7-16.1c-5.4,4-9.7,9-12.9,15.1c-3,6.2-4.6,12.7-4.7,19.5
		c1.6-0.1,3.2-0.2,4.8-0.2C394.1,315.5,394.8,309.4,396.9,303.3z"/>
	<path class="st0" d="M384.3,310.7c-2.8-3.2-6.1-5.5-10.2-6.9c3.6,1.8,6.6,4.4,8.8,7.9c2,3.3,3,6.8,3,10.7c1.1-0.2,2.2-0.3,3.3-0.4
		C388.7,317.7,387,314,384.3,310.7z"/>
	<path class="st0" d="M380.3,329.5c1.6,1.2,4.2,1.9,7.2,1.9s5.6-0.8,7.2-1.9c1.5,1.1,4.1,1.9,6.9,1.9c0,0,0,0,0.1,0s0.1,0,0.2,0
		c3,0,5.6-0.8,7.2-1.9l0,0l0,0c1.6,1.2,4.2,1.9,7.2,1.9c2.5,0,4.7-0.5,6.3-1.4c-5.2-4.5-15.4-7.6-27.3-7.6
		c-12.2,0-22.8,3.3-27.8,8.1c1.5,0.6,3.4,0.9,5.4,0.9C376,331.4,378.7,330.7,380.3,329.5z"/>
	<path class="st0" d="M418.6,334c-3,0-5.6-0.8-7.2-1.9l0,0l0,0c-1.6,1.2-4.2,1.9-7.2,1.9c-0.1,0-0.1,0-0.2,0c0,0,0,0-0.1,0
		c-2.9,0-5.4-0.8-6.9-1.9c-1.6,1.2-4.2,1.9-7.2,1.9s-5.6-0.8-7.2-1.9c-1.6,1.2-4.2,1.9-7.2,1.9c-1.6,0-3.1-0.2-4.3-0.6
		c-0.4,0.3-0.7,0.6-1.1,0.9c1.5,0.6,3.4,0.9,5.4,0.9c3,0,5.6-0.8,7.2-1.9c1.6,1.2,4.2,1.9,7.2,1.9s5.6-0.8,7.2-1.9
		c1.5,1.1,4.1,1.9,6.9,1.9c0,0,0,0,0.1,0s0.1,0,0.2,0c3,0,5.6-0.8,7.2-1.9l0,0l0,0c1.6,1.2,4.2,1.9,7.2,1.9c2.5,0,4.7-0.5,6.3-1.4
		c-0.3-0.3-0.7-0.6-1-0.8C422.5,333.7,420.6,334,418.6,334z"/>
</g>
</svg>
