<?xml version="1.0" encoding="utf-8"?>
<!-- Generator: Adobe Illustrator 27.7.0, SVG Export Plug-In . SVG Version: 6.00 Build 0)  -->
<svg version="1.1" xmlns="http://www.w3.org/2000/svg" xmlns:xlink="http://www.w3.org/1999/xlink" x="0px" y="0px"
	 viewBox="0 0 20 20" style="enable-background:new 0 0 20 20;" xml:space="preserve">
<style type="text/css">
	.st0{display:none;}
	.st1{display:inline;}
	.st2{fill:none;stroke:#000000;stroke-width:0.25;stroke-miterlimit:10;}
	.st3{fill:none;stroke:#010002;stroke-width:0.25;stroke-miterlimit:10;}
	.st4{fill:#FFFFFF;}
	.st5{fill-rule:evenodd;clip-rule:evenodd;fill:none;stroke:#000000;stroke-width:0.25;stroke-miterlimit:10;}
	.st6{display:inline;fill:none;stroke:#000000;stroke-width:0.25;stroke-miterlimit:10;}
	.st7{fill:none;stroke:#000000;stroke-width:0.25;stroke-miterlimit:50;}
</style>
<g id="Layer_1" class="st0">
	<g id="suit">
		<g class="st1">
			<g>
				<g>
					<polygon class="st2" points="10.3,8.6 11.2,3.6 10.5,2.6 10.8,1.9 9.8,1.9 10.1,2.6 9.4,3.6 					"/>
					<path class="st2" d="M15.4,17.3h1.4l-0.4-6l-0.7-7.9L12.4,2L12,1.3l-0.4,1.4l-1.4,8.1L8.9,2.7L8.6,1.3L8.2,2L4.9,3.4l-0.7,7.9
						l-0.4,6h1.4l1.3-7.8L7,11.3l-1.4,5.9l4,1.8l0.7-3.5L11,19l4-1.8l-1.4-5.9l0.5-1.8L15.4,17.3z M14,6.3l-1.4,0.2l0.9-1.2L14,5.7
						V6.3z"/>
				</g>
			</g>
			<g>
				<path d="M7.2,16c0.3-0.2,0.7-0.1,1,0.2C7.9,16.2,7.5,16.1,7.2,16L7.2,16L7.2,16z"/>
			</g>
			<g>
				<path d="M12.2,16.2c0.2-0.3,0.6-0.4,1-0.2l0,0C12.8,16.1,12.4,16.2,12.2,16.2L12.2,16.2z"/>
			</g>
		</g>
	</g>
	<g id="Layer_2_00000132086636597128106510000006439894974263933846_" class="st1">
		<g>
			<g>
				<g>
					<path class="st2" d="M11.5,10.1L11.5,10.1c-0.2,0-0.3,0.1-0.3,0.3s0.1,0.3,0.3,0.3s0.3-0.1,0.3-0.3S11.7,10.1,11.5,10.1z"/>
				</g>
			</g>
			<g>
				<g>
					<path class="st2" d="M11.5,14.5L11.5,14.5c-0.2,0-0.3,0.1-0.3,0.3s0.1,0.3,0.3,0.3s0.3-0.1,0.3-0.3S11.7,14.5,11.5,14.5z"/>
				</g>
			</g>
			<g>
				<g>
					<path class="st2" d="M11.5,7.9L11.5,7.9c-0.2,0-0.3,0.1-0.3,0.3s0.1,0.3,0.3,0.3s0.3-0.1,0.3-0.3C11.8,8.1,11.7,7.9,11.5,7.9z"
						/>
				</g>
			</g>
			<g>
				<g>
					<path class="st2" d="M11.5,12.3L11.5,12.3c-0.2,0-0.3,0.1-0.3,0.3s0.1,0.3,0.3,0.3s0.3-0.1,0.3-0.3
						C11.8,12.4,11.7,12.3,11.5,12.3z"/>
				</g>
			</g>
			<g>
				<g>
					<path class="st2" d="M18.3,14.8L18,4.8c0-0.9-0.6-1.7-1.4-2l-3.1-1.1L13,0.9c0-0.1-0.1-0.1-0.2-0.1l0,0l0,0h-5l0,0l0,0
						c-0.1,0-0.2,0.1-0.2,0.1L6.9,1.7l-3,1.1C3,3.1,2.5,3.9,2.4,4.8l-0.3,10c0,0.3,0.1,0.5,0.4,0.6l-0.1,1c0,0.3,0.1,0.5,0.4,0.6
						l1.8,0.7c0,0.3,0.2,0.5,0.4,0.6l4.4,1.2h0.1c0.1,0,0.1,0,0.2,0c0.1,0,0.1-0.1,0.1-0.2l0.3-2.5l0.3,2.5c0,0.1,0.1,0.2,0.1,0.2
						c0.1,0,0.2,0.1,0.2,0l4.4-1.2c0.3-0.1,0.4-0.3,0.4-0.6l1.8-0.7c0.2-0.1,0.4-0.3,0.4-0.6l-0.1-1C18.2,15.3,18.3,15.1,18.3,14.8z
						 M13,2l-1.3,2l0,0l0,0l-1-0.8l2-1.7L13,2z M7.8,1.5l2,1.7L8.8,4l0,0l0,0L7.5,2L7.8,1.5z M4.7,17l-1.6-0.6l0,0v-0.8l1.5,0.6
						L4.7,17L4.7,17z M10,14.4L10,14.4l-0.6,4.3l-4.1-1.1l0,0V6.3C5.3,6.1,5.2,6,5,6C4.8,6,4.7,6.1,4.7,6.3v9.2l-1.9-0.7l0,0L3,4.8
						c0-0.6,0.4-1.2,1-1.4l2.9-1l1.2,2c0.1,0.1,0.2,0.2,0.4,0.3h0.1c0.1,0,0.3,0,0.4-0.1l1-0.8V14.4L10,14.4z M10.2,2.8L8.5,1.3H12
						L10.2,2.8z M17.4,16.4L15.8,17v-0.8l1.5-0.6L17.4,16.4L17.4,16.4z M17.7,14.9l-1.9,0.7V6.4c0-0.2-0.1-0.3-0.3-0.3l0,0
						c-0.2,0-0.3,0.1-0.3,0.3v11.3l0,0l-4.1,1.1l-0.6-4.3V3.8l0.8,0.6c0.1,0.1,0.2,0.1,0.4,0.1h0.1c0.2,0,0.3-0.1,0.4-0.3l1.2-2
						l2.9,1c0.6,0.2,1,0.8,1,1.4L17.7,14.9L17.7,14.9z"/>
				</g>
			</g>
			<g>
				<g>
					<path class="st2" d="M8.7,6.1H6.2C6,6.1,5.9,6.2,5.9,6.3v2.2c0,0.5,0.4,0.9,0.9,0.9H8c0.6,0,1-0.4,1-0.9V6.3
						C9,6.2,8.9,6.1,8.7,6.1z M8.4,8.5c0,0.2-0.1,0.3-0.3,0.3H6.8c-0.2,0-0.3-0.1-0.3-0.3V7.8c0.1,0,0.2,0.1,0.3,0.1H8
						c0.1,0,0.2,0,0.3-0.1L8.4,8.5L8.4,8.5z M8.4,7c0,0.2-0.1,0.3-0.3,0.3H6.8C6.6,7.3,6.5,7.2,6.5,7V6.6h1.9V7L8.4,7z"/>
				</g>
			</g>
			<g>
				<g>
					<circle class="st2" cx="11.5" cy="6" r="0.3"/>
				</g>
			</g>
		</g>
	</g>
</g>
<g id="glassess" class="st0">
	<g class="st1">
		<g>
			<path class="st3" d="M14.5,14.4c-2.1,0-3.8-1.7-3.8-3.8c0-0.2,0-0.3,0-0.5H9.5c0,0.2,0,0.3,0,0.5c0,2.1-1.7,3.8-3.8,3.8
				c-2.1,0-3.8-1.7-3.8-3.8c0-0.2,0-0.3,0-0.5H1.4c-0.5,0-0.9-0.5-0.9-1s0.4-1,0.9-1h1.2c0.8-1,1.9-1.6,3.1-1.6S8,7.2,8.8,8.2h2.7
				c0.8-1,1.9-1.6,3.1-1.6c1.1,0,2.3,0.6,3.1,1.6h1c0.5,0,0.9,0.5,0.9,1s-0.4,1-0.9,1h-0.2c0,0.2,0,0.3,0,0.5
				C18.4,12.7,16.7,14.4,14.5,14.4z"/>
		</g>
	</g>
</g>
<g id="Layer_4" class="st0">
	<g class="st1">
		<path class="st2" d="M17.9,8.6c0.3-1.5,0.2-3.5-0.5-4.2c-0.6-0.7-2.4-1.4-2.9-1.5l-0.7-1.4c-0.2-0.3-0.5-0.5-0.8-0.5H7.7
			C7.3,0.9,7,1.1,6.9,1.4L6.1,2.8C5.7,3,3.9,3.6,3.3,4.4C2.6,5.1,2.6,7.1,2.8,8.6c-0.1,0.3-0.4,2-0.1,3.4c0,0.3-0.1,1.8-0.1,2.3
			c0,0.5,0.2,0.9,0.4,1.2l0,1.1c0,0.4,0.2,0.7,0.5,0.9c0,0,0,0,0,0l2.2,1v0.3c0,0.3,0.3,0.6,0.6,0.6h8c0.3,0,0.6-0.3,0.6-0.6v-0.3
			l2.2-1c0,0,0,0,0,0c0.3-0.2,0.5-0.5,0.5-0.9l-0.1-1.1c0.2-0.3,0.4-0.7,0.4-1.2c0-0.5-0.1-2-0.1-2.3C18.3,10.6,18,8.9,17.9,8.6z
			 M17.3,8.5l-1.6,0.7c0-0.2-0.1-0.4-0.2-0.6V7.4c0-0.1,0-1.3,1.5-2.4C17.5,5.6,17.6,7.1,17.3,8.5z M16.8,4.5C15,5.8,15,7.3,15,7.4
			v0.9h-4.4V5.4c1.6-0.4,3.3-1.7,3.8-2.1C15,3.6,16.2,4,16.8,4.5z M15.1,12c0.1,0.4,0.4,1.4,0.1,2.5h-4.5V12H15.1z M10.7,11.4V8.9
			h4.4c0.4,1.1,0.1,2.1,0,2.5H10.7z M13.4,1.7C13.4,1.7,13.4,1.7,13.4,1.7L14,3c-0.5,0.4-2,1.5-3.4,1.9V4.1
			C11.1,3.9,12.3,3,13.4,1.7z M6.3,3.4c0.5,0.4,2.2,1.7,3.8,2.1v2.9H5.7V7.4c0-0.1,0-1.6-1.7-2.9C4.6,4,5.7,3.6,6.3,3.4z M3.6,4.9
			C5.1,6,5.1,7.3,5.1,7.4v1.2C5.1,8.7,5,8.9,5,9.1L3.4,8.5C3.2,7.1,3.2,5.6,3.6,4.9z M3.3,9.1l1.6,0.6c-0.1,0.9,0.1,1.7,0.2,2
			c-0.1,0.1-0.1,0.4-0.2,0.8l-1.7-0.7C3.1,10.8,3.2,9.7,3.3,9.1z M3.2,14.3c0-0.4,0-1.3,0.1-1.9l1.6,0.7c0,0.5,0,1.1,0.2,1.7
			c0,0.2-0.1,0.7-0.1,1.1L4,15.5C3.4,15.3,3.2,14.6,3.2,14.3z M3.8,17c-0.1-0.1-0.2-0.2-0.2-0.3c0,0,0,0,0,0l0-0.7
			c0.1,0,0.1,0.1,0.2,0.1l1.1,0.5c0.1,0.4,0.2,0.8,0.5,1.1c0.1,0.1,0.2,0.2,0.3,0.2L3.8,17z M10.1,18.8H6.4c0,0,0,0,0,0v-0.7
			c0.1,0,0.2,0,0.4,0h3.4L10.1,18.8L10.1,18.8z M10.1,17.6H6.7c-0.7,0-1.3-0.6-1.3-1.3c0-0.4,0.1-0.9,0.1-1.2h4.5V17.6z M10.1,14.5
			H5.6c-0.3-1.1,0-2.1,0.1-2.5h4.4V14.5z M10.1,11.4H5.6c-0.1-0.4-0.4-1.5,0-2.5h4.4V11.4z M10.1,4.8C8.7,4.5,7.2,3.4,6.7,3l0.6-1.3
			c0,0,0,0,0,0C8.4,3,9.7,3.9,10.1,4.1V4.8z M7.9,1.5h4.8c-0.9,1.1-2,1.9-2.4,2.1C10,3.4,8.9,2.6,7.9,1.5z M14.4,18.8
			C14.4,18.8,14.4,18.8,14.4,18.8l-3.7,0v-0.7H14c0.1,0,0.3,0,0.4,0L14.4,18.8L14.4,18.8z M14,17.6h-3.4v-2.5h4.5
			c0,0.3,0.1,0.8,0.1,1.2C15.3,17,14.7,17.6,14,17.6z M17,17L15,17.8c0.1-0.1,0.2-0.2,0.3-0.2c0.3-0.3,0.5-0.7,0.5-1.1l1.1-0.5
			c0.1,0,0.1,0,0.1-0.1l0,0.7C17.2,16.8,17.1,16.9,17,17z M17.5,14.3c0,0.3-0.2,1-0.8,1.2l-0.9,0.4c0-0.4-0.1-0.9-0.1-1.1
			c0.2-0.6,0.2-1.2,0.2-1.7l1.6-0.7C17.5,13,17.5,13.9,17.5,14.3z M17.5,11.8l-1.7,0.7c-0.1-0.4-0.2-0.7-0.2-0.8
			c0.1-0.3,0.3-1,0.2-2l1.6-0.6C17.5,9.7,17.7,10.8,17.5,11.8z"/>
	</g>
</g>
<g id="Layer_5" class="st0">
	<g class="st1">
		<g>
			<path d="M16.3,11.2C16.3,11.2,16.3,11.1,16.3,11.2c0-0.1,0-0.1,0-0.1c-0.1-0.4-0.2-0.8-0.3-1.2c0,0,0,0,0,0
				c-0.3-0.9-0.6-1.8-1.1-2.5c0,0-0.2-0.3-0.5-0.6c0,0,0-0.1-0.1-0.1c0,0,0,0,0-0.1c0,0-0.1-0.1-0.1-0.1c0,0,0-0.1-0.1-0.1
				c0,0-0.1-0.1-0.1-0.1c0,0-0.1-0.1-0.1-0.1c0,0-0.1-0.1-0.1-0.1c0,0-0.1-0.1-0.1-0.1c0,0-0.1-0.1-0.1-0.1c0,0-0.1-0.1-0.1-0.1
				c0,0-0.1-0.1-0.1-0.1c0,0-0.1-0.1-0.1-0.1c0,0-0.1,0-0.1-0.1c0,0-0.1,0-0.1-0.1c0,0,0,0,0,0l-0.2-2.2c-0.2-1.5-1.5-2.6-3-2.6
				S7.2,1.8,7,3.3L6.8,5.5c0,0-0.1,0.1-0.1,0.1c0,0,0,0,0,0c0,0-0.1,0.1-0.1,0.1c0,0,0,0-0.1,0.1c0,0-0.1,0.1-0.1,0.1
				C6.3,6,6.3,6,6.2,6c0,0-0.1,0.1-0.1,0.1c0,0-0.1,0.1-0.1,0.1C6,6.2,6,6.3,6,6.3c0,0-0.1,0.1-0.1,0.1c0,0,0,0-0.1,0.1
				c0,0-0.1,0.1-0.1,0.1c0,0,0,0,0,0c0,0,0,0.1-0.1,0.1c0,0,0,0,0,0.1c0,0,0,0-0.1,0.1C5.3,7.1,5.1,7.3,5.1,7.3c0,0,0,0,0,0
				c0,0,0,0,0,0c-2.2,3.4-2,10.6-1.9,11.6c0,0.1,0,0.1,0,0.1c0,0.2,0.1,0.3,0.3,0.3h0h1.2h0c0.1,0,0.2-0.1,0.3-0.2l0.8-1.9
				c0,0,0.1,0.1,0.1,0.1v1.4c0,0.3,0.3,0.6,0.6,0.6h6.8c0.3,0,0.6-0.3,0.6-0.6v-1.4c0.1,0,0.1-0.1,0.2-0.1l0.8,1.9
				c0,0.1,0.2,0.2,0.3,0.2h1.2c0,0,0.1,0,0.1,0c0,0,0,0,0,0c0,0,0,0,0.1,0c0,0,0,0,0,0c0,0,0,0,0-0.1c0,0,0,0,0,0c0,0,0,0,0-0.1
				C16.8,18.8,17,14.8,16.3,11.2z M5.2,17.2H3.8c0-0.1,0-0.2,0-0.3l1.5-0.6c0,0.2,0,0.4,0,0.6L5.2,17.2z M5.2,12.2
				c0,0.1,0,0.1,0,0.2c0,0.4,0,0.8,0,1.3l-1.3,0.5c0.2-2.1,0.6-4.5,1.5-6.1C5.3,8.9,5.2,10.2,5.2,12.2z M13.1,9.4
				c0.2,0,0.3-0.1,0.3-0.3V6.6c0,0,0.1,0.1,0.1,0.1c0,0,0,0,0,0c0,0,0.1,0.1,0.1,0.1c0,0,0,0,0,0c0,0,0,0.1,0.1,0.1c0,0,0,0,0,0
				c0,0,0,0.1,0.1,0.1c0,0.2,0.2,0.9,0.3,3.2L12.2,11c0-1.5,0.3-3,0.6-4.2v2.3C12.8,9.2,12.9,9.4,13.1,9.4z M5.9,12.1
				c0-0.1,0-0.3,0-0.4c0-3.5,0.3-4.5,0.3-4.7c0,0,0,0,0.1-0.1c0,0,0,0,0,0c0,0,0-0.1,0.1-0.1c0,0,0,0,0,0c0,0,0.1-0.1,0.1-0.1
				c0,0,0,0,0,0c0,0,0.1-0.1,0.1-0.1v2.5c0,0.2,0.1,0.3,0.3,0.3s0.3-0.1,0.3-0.3V6.8c0.4,1.4,0.6,3,0.6,4.8c0,0.4,0,0.8,0,1.2
				l-1.9,0.7C5.9,13,5.9,12.5,5.9,12.1z M6.9,17.2C6.9,17.2,6.9,17.2,6.9,17.2c-0.1,0-0.2-0.1-0.2-0.1c0,0,0,0,0,0
				c-0.3-0.2-0.5-0.4-0.7-0.6c0-0.2,0-0.3,0-0.4l1.5-0.6C7.3,16,7.1,16.6,6.9,17.2z M11.9,17.5H8.1c-0.2,0-0.4,0-0.6-0.1
				c0.3-0.8,0.5-1.7,0.7-2.7c0-0.1,0-0.3,0.1-0.4c0.1-0.9,0.2-1.8,0.2-2.8c0-2.3-0.4-4.4-1-6l0.2-2.2c0.2-1.2,1.2-2,2.3-2
				s2.2,0.9,2.3,2l0.2,2.2c-0.6,1.6-1,3.7-1,6c0,0.3,0,0.6,0,0.9c0,0,0,0,0,0c0,0.3,0,0.6,0.1,0.9v0v0c0.1,1.5,0.4,2.9,0.9,4.1
				C12.3,17.4,12.1,17.5,11.9,17.5z M14.1,16.4c-0.2,0.2-0.4,0.4-0.6,0.6c0,0,0,0,0,0c0,0,0,0-0.1,0c0,0-0.1,0-0.1,0.1
				c-0.1,0-0.1,0.1-0.2,0.1c0,0,0,0,0,0h0c-0.4-1.1-0.7-2.3-0.8-3.7l1.9-0.7C14.1,13.8,14.1,15,14.1,16.4z M14.6,8.1
				C14.6,8.1,14.6,8.1,14.6,8.1c0.3,0.5,0.5,1,0.7,1.6L14.7,10c0-0.2,0-0.4,0-0.5c0,0,0,0,0,0C14.7,8.9,14.7,8.5,14.6,8.1
				C14.6,8.2,14.6,8.1,14.6,8.1z M14.8,17.2l-0.2-0.4c0.1-1.7,0.1-3.1,0.1-4.3l1.1-0.4c0.3,1.8,0.4,3.7,0.4,5.1L14.8,17.2L14.8,17.2
				z"/>
			<path d="M11.9,5.2l-0.2-1.8c-0.1-0.9-0.9-1.5-1.7-1.5c-0.9,0-1.6,0.6-1.7,1.5L8,5.2C8,5.7,8.1,6.2,8.4,6.6C8.8,7,9.2,7.2,9.7,7.2
				h0.5c0.5,0,1-0.2,1.3-0.6C11.9,6.2,12,5.7,11.9,5.2z"/>
			<path class="st4" d="M11.7,5.2l-0.2-1.6c-0.1-0.8-0.8-1.4-1.5-1.4c-0.8,0-1.4,0.6-1.5,1.4L8.2,5.2C8.2,5.6,8.3,6.1,8.6,6.4
				c0.3,0.3,0.7,0.5,1.2,0.5h0.4c0.4,0,0.9-0.2,1.2-0.5C11.7,6.1,11.8,5.6,11.7,5.2z"/>
		</g>
	</g>
</g>
<g id="Layer_6" class="st0">
	<g class="st1">
		<path class="st2" d="M17.6,15.5c0-6.9-0.3-9.6-0.5-11.1l0-0.2c-0.1-0.5-0.4-0.9-0.8-1l-2.3-0.7V1.8c0-0.3-0.3-0.6-0.6-0.6H6.7
			c-0.3,0-0.6,0.3-0.6,0.6v0.7L3.8,3.2C3.3,3.3,3,3.7,3,4.2l0,0.2C2.8,5.8,2.4,8.5,2.4,15.5c0,0.2,0.1,0.3,0.2,0.4
			c0,0,0.1,0.1,0.1,0.1v0.7c0,0.3,0.3,0.6,0.6,0.6h1.3c0.1,0.1,0.1,0.2,0.2,0.2v0.7c0,0.3,0.3,0.6,0.6,0.6h9.1
			c0.3,0,0.6-0.3,0.6-0.6v-0.7c0.1-0.1,0.2-0.1,0.2-0.2h1.3c0.3,0,0.6-0.3,0.6-0.6V16c0,0,0.1-0.1,0.1-0.1
			C17.5,15.8,17.6,15.6,17.6,15.5z M17,15.5C17,15.5,17,15.5,17,15.5C17,15.5,17,15.5,17,15.5l-1.6,0V7.1c0-0.2,0-0.5,0.1-0.7
			l0.9-2.3c0,0,0,0.1,0,0.1l0,0.2C16.7,5.9,17,8.5,17,15.5z M5.1,17C5.1,17,5.1,17,5.1,17l0-9.9c0-0.3-0.1-0.6-0.2-0.9L4,3.7
			c0,0,0,0,0,0L6.3,3l2.2,1.5c0,0,0,0,0,0v2.8C8.1,7.5,7.9,7.8,7.9,8.2v0.6c0,0.2,0.1,0.3,0.3,0.3h1.2c0.2,0,0.3-0.1,0.3-0.3V8.2
			c0-0.4-0.3-0.7-0.6-0.8V4.9l0.8,0.5c0,0,0,0,0,0c0,0,0,0,0,0c0,0,0,0,0,0c0,0,0,0,0,0c0,0,0,0,0,0c0,0,0,0,0,0c0,0,0,0,0,0
			c0,0,0,0,0,0c0,0,0,0,0,0c0,0,0,0,0,0c0,0,0,0,0,0c0,0,0,0,0,0c0,0,0,0,0,0c0,0,0,0,0,0c0,0,0,0,0,0c0,0,0,0,0,0c0,0,0,0,0,0
			c0,0,0,0,0,0c0,0,0,0,0,0l0.8-0.5v2.5c-0.4,0.1-0.6,0.5-0.6,0.8v0.6c0,0.2,0.1,0.3,0.3,0.3h1.2c0.2,0,0.3-0.1,0.3-0.3V8.2
			c0-0.4-0.3-0.7-0.6-0.8V4.5c0,0,0,0,0,0L13.7,3L16,3.7c0,0,0,0,0,0l-1,2.5c-0.1,0.3-0.2,0.6-0.2,0.9V17c0,0,0,0,0,0H5.1z
			 M11.2,7.9c0.2,0,0.3,0.1,0.3,0.3v0.3h-0.6V8.2C10.9,8,11,7.9,11.2,7.9z M10.4,4.5c0.1-0.4,0.4-0.8,0.8-1l2.2-1.3v0.3L10.4,4.5z
			 M10.9,3.1C10.5,3.3,10.2,3.6,10,4C9.8,3.6,9.5,3.3,9.1,3.1L6.9,1.8h6.2L10.9,3.1z M8.8,7.9C9,7.9,9.1,8,9.1,8.2v0.3H8.5V8.2
			C8.5,8,8.6,7.9,8.8,7.9z M6.6,2.6V2.3l2.2,1.3c0.4,0.2,0.7,0.6,0.8,1L6.6,2.6z M3.5,4.5l0-0.2c0,0,0-0.1,0-0.1l0.9,2.3
			c0.1,0.2,0.1,0.4,0.1,0.7v8.4H3c0,0,0,0,0,0c0,0,0,0,0,0C3,8.5,3.3,5.9,3.5,4.5z M3.3,16.7V16h1.3v0.6L3.3,16.7
			C3.3,16.7,3.3,16.7,3.3,16.7z M14.6,18.2H5.4c0,0,0,0,0,0v-0.6h9.1L14.6,18.2C14.6,18.2,14.6,18.2,14.6,18.2z M16.7,16.7h-1.2V16
			h1.3L16.7,16.7C16.7,16.7,16.7,16.7,16.7,16.7z"/>
		<path class="st2" d="M12.7,11.7c0-0.1-0.1-0.2-0.3-0.2H7.6c-0.1,0-0.2,0.1-0.3,0.2l-0.9,3.3c0,0,0,0,0,0.1v0.9
			c0,0.2,0.1,0.3,0.3,0.3h6.7c0.2,0,0.3-0.1,0.3-0.3v-0.9c0,0,0-0.1,0-0.1L12.7,11.7z M13.1,15.8H6.9v-0.6l0.8-3.1h4.4l0.8,3.1
			L13.1,15.8L13.1,15.8z"/>
	</g>
</g>
<g id="Layer_7" class="st0">
	<g class="st1">
		<path d="M18,13.6h-3.1c-0.2,0-0.5-0.1-0.6-0.3L13.2,12c-0.2-0.2-0.2-0.5,0-0.6l1.1-1.3c0.1-0.2,0.4-0.3,0.6-0.3H18
			c0.2,0,0.4,0.2,0.4,0.4v3C18.4,13.4,18.2,13.6,18,13.6L18,13.6z M14.9,10c-0.1,0-0.3,0.1-0.4,0.2l-1.1,1.3c-0.1,0.1-0.1,0.2,0,0.3
			l1.1,1.3c0.1,0.1,0.3,0.2,0.4,0.2H18c0.1,0,0.1-0.1,0.1-0.1v-3c0-0.1-0.1-0.1-0.1-0.1H14.9z"/>
		<path d="M15.6,12.7c-0.6,0-1-0.5-1-1c0-0.6,0.5-1,1-1c0.6,0,1,0.5,1,1C16.7,12.2,16.2,12.7,15.6,12.7z M15.6,10.9
			c-0.4,0-0.7,0.3-0.7,0.7c0,0.4,0.3,0.7,0.7,0.7s0.7-0.3,0.7-0.7C16.4,11.3,16,10.9,15.6,10.9z"/>
		<path d="M15.6,12.1c-0.2,0-0.4-0.2-0.4-0.4c0-0.2,0.2-0.4,0.4-0.4c0.2,0,0.4,0.2,0.4,0.4C16.1,11.9,15.9,12.1,15.6,12.1z
			 M15.6,11.5c-0.1,0-0.1,0.1-0.1,0.1s0.1,0.1,0.1,0.1c0.1,0,0.1-0.1,0.1-0.1S15.7,11.5,15.6,11.5z"/>
		<path d="M14.9,5L14.9,5 M17.4,8c-0.1,0-0.1-0.1-0.1-0.1c0-0.7-0.6-1.3-1.3-1.3c-0.1,0-0.1-0.1-0.1-0.1c0-0.1,0.1-0.1,0.1-0.1
			c0.9,0,1.6,0.7,1.6,1.6C17.5,7.9,17.5,8,17.4,8C17.4,8,17.4,8,17.4,8z"/>
		<path d="M15.9,17.4h-13c-0.1,0-0.1-0.1-0.1-0.1c0-0.1,0.1-0.1,0.1-0.1h13c0.7,0,1.3-0.6,1.3-1.3c0-0.1,0.1-0.1,0.1-0.1
			s0.1,0.1,0.1,0.1C17.5,16.7,16.8,17.4,15.9,17.4L15.9,17.4z"/>
		<path d="M17.4,6.7c-0.1,0-0.1-0.1-0.1-0.1V6c0-0.7-0.6-1.3-1.3-1.3c-0.1,0-0.1-0.1-0.1-0.1s0.1-0.1,0.1-0.1c0.9,0,1.6,0.7,1.6,1.6
			v0.5C17.5,6.6,17.5,6.7,17.4,6.7C17.4,6.7,17.4,6.7,17.4,6.7z"/>
		<path d="M2.9,6.5c-0.6,0-1-0.5-1-1c0-0.1,0.1-0.1,0.1-0.1c0.1,0,0.1,0.1,0.1,0.1c0,0.4,0.3,0.7,0.7,0.7C3,6.2,3,6.3,3,6.3
			c0,0,0,0,0,0C3,6.4,3,6.5,2.9,6.5L2.9,6.5z"/>
		<path d="M2.9,17.4c-0.6,0-1-0.5-1-1c0-0.1,0.1-0.1,0.1-0.1c0.1,0,0.1,0.1,0.1,0.1c0,0.4,0.3,0.7,0.7,0.7C3,17.1,3,17.2,3,17.3
			C3,17.4,3,17.4,2.9,17.4z"/>
		<path d="M2,5.6c-0.1,0-0.1-0.1-0.1-0.1c0-0.6,0.5-1,1-1C3,4.4,3,4.5,3,4.6c0,0,0,0,0,0C3,4.6,3,4.7,2.9,4.7C2.5,4.7,2.2,5,2.2,5.5
			C2.2,5.5,2.1,5.6,2,5.6C2,5.6,2,5.6,2,5.6z"/>
		<path d="M15.9,6.5h-13c-0.1,0-0.1-0.1-0.1-0.1c0-0.1,0.1-0.1,0.1-0.1h13c0.1,0,0.1,0.1,0.1,0.1c0,0,0,0,0,0
			C16.1,6.4,16,6.5,15.9,6.5C15.9,6.5,15.9,6.5,15.9,6.5z"/>
		<path d="M15.6,5.6H3.2C3.1,5.6,3,5.5,3,5.5c0-0.1,0.1-0.1,0.1-0.1h12.4c0.1,0,0.1,0.1,0.1,0.1C15.8,5.5,15.7,5.6,15.6,5.6z"/>
		<path d="M2,16.6c-0.1,0-0.1-0.1-0.1-0.1v-11c0-0.1,0.1-0.1,0.1-0.1c0.1,0,0.1,0.1,0.1,0.1v11C2.2,16.5,2.1,16.6,2,16.6z"/>
		<path d="M15.9,4.7h-0.3c-0.1,0-0.1-0.1-0.1-0.1c0,0,0,0,0,0c0-0.1,0.1-0.1,0.1-0.1h0.3c0.1,0,0.1,0.1,0.1,0.1c0,0,0,0,0,0
			C16.1,4.6,16,4.7,15.9,4.7z"/>
		<path d="M3.5,4.7H2.9c-0.1,0-0.1-0.1-0.1-0.1c0-0.1,0.1-0.1,0.1-0.1h0.6c0.1,0,0.1,0.1,0.1,0.1c0,0,0,0,0,0
			C3.6,4.6,3.6,4.7,3.5,4.7z"/>
		<path d="M3.5,7.4H3.2C3.1,7.4,3,7.3,3,7.2c0-0.1,0.1-0.1,0.1-0.1h0.3c0.1,0,0.1,0.1,0.1,0.1c0,0,0,0,0,0C3.6,7.3,3.6,7.4,3.5,7.4z
			 M15,7.4h-0.6c-0.1,0-0.1-0.1-0.1-0.1c0,0,0,0,0,0c0-0.1,0.1-0.1,0.1-0.1H15c0.1,0,0.1,0.1,0.1,0.1C15.2,7.3,15.1,7.4,15,7.4z
			 M13.9,7.4h-0.6c-0.1,0-0.1-0.1-0.1-0.1c0,0,0,0,0,0c0-0.1,0.1-0.1,0.1-0.1h0.6C14,7.1,14,7.1,14,7.2C14,7.3,14,7.4,13.9,7.4z
			 M12.7,7.4h-0.6c-0.1,0-0.1-0.1-0.1-0.1c0-0.1,0.1-0.1,0.1-0.1h0.6c0.1,0,0.1,0.1,0.1,0.1C12.9,7.3,12.8,7.4,12.7,7.4z M11.6,7.4
			H11c-0.1,0-0.1-0.1-0.1-0.1c0-0.1,0.1-0.1,0.1-0.1h0.6c0.1,0,0.1,0.1,0.1,0.1C11.7,7.3,11.7,7.4,11.6,7.4z M10.4,7.4H9.8
			c-0.1,0-0.1-0.1-0.1-0.1c0-0.1,0.1-0.1,0.1-0.1h0.6c0.1,0,0.1,0.1,0.1,0.1c0,0,0,0,0,0C10.6,7.3,10.5,7.4,10.4,7.4L10.4,7.4z
			 M9.3,7.4H8.7c-0.1,0-0.1-0.1-0.1-0.1c0-0.1,0.1-0.1,0.1-0.1h0.6c0.1,0,0.1,0.1,0.1,0.1C9.4,7.3,9.3,7.4,9.3,7.4z M8.1,7.4H7.5
			c-0.1,0-0.1-0.1-0.1-0.1c0-0.1,0.1-0.1,0.1-0.1h0.6c0.1,0,0.1,0.1,0.1,0.1C8.3,7.3,8.2,7.4,8.1,7.4z M7,7.4H6.4
			c-0.1,0-0.1-0.1-0.1-0.1c0-0.1,0.1-0.1,0.1-0.1H7c0.1,0,0.1,0.1,0.1,0.1C7.1,7.3,7,7.4,7,7.4z M5.8,7.4H5.2
			c-0.1,0-0.1-0.1-0.1-0.1c0-0.1,0.1-0.1,0.1-0.1h0.6c0.1,0,0.1,0.1,0.1,0.1c0,0,0,0,0,0C5.9,7.3,5.9,7.4,5.8,7.4z M4.6,7.4H4.1
			C4,7.4,3.9,7.3,3.9,7.2c0-0.1,0.1-0.1,0.1-0.1h0.6c0.1,0,0.1,0.1,0.1,0.1c0,0,0,0,0,0C4.8,7.3,4.7,7.4,4.6,7.4L4.6,7.4z M15.9,7.4
			h-0.3c-0.1,0-0.1-0.1-0.1-0.1c0,0,0,0,0,0c0-0.1,0.1-0.1,0.1-0.1h0.3c0.1,0,0.1,0.1,0.1,0.1c0,0,0,0,0,0C16.1,7.3,16,7.4,15.9,7.4
			z"/>
		<path d="M3.5,16.6H3.2c-0.1,0-0.1-0.1-0.1-0.1s0.1-0.1,0.1-0.1h0.3c0.1,0,0.1,0.1,0.1,0.1S3.6,16.6,3.5,16.6z M15,16.6h-0.6
			c-0.1,0-0.1-0.1-0.1-0.1s0.1-0.1,0.1-0.1H15c0.1,0,0.1,0.1,0.1,0.1S15.1,16.6,15,16.6z M13.9,16.6h-0.6c-0.1,0-0.1-0.1-0.1-0.1
			s0.1-0.1,0.1-0.1h0.6c0.1,0,0.1,0.1,0.1,0.1S14,16.6,13.9,16.6z M12.7,16.6h-0.6c-0.1,0-0.1-0.1-0.1-0.1s0.1-0.1,0.1-0.1h0.6
			c0.1,0,0.1,0.1,0.1,0.1S12.8,16.6,12.7,16.6z M11.6,16.6H11c-0.1,0-0.1-0.1-0.1-0.1s0.1-0.1,0.1-0.1h0.6c0.1,0,0.1,0.1,0.1,0.1
			S11.7,16.6,11.6,16.6z M10.4,16.6H9.8c-0.1,0-0.1-0.1-0.1-0.1s0.1-0.1,0.1-0.1h0.6c0.1,0,0.1,0.1,0.1,0.1S10.5,16.6,10.4,16.6
			L10.4,16.6z M9.3,16.6H8.7c-0.1,0-0.1-0.1-0.1-0.1s0.1-0.1,0.1-0.1h0.6c0.1,0,0.1,0.1,0.1,0.1S9.3,16.6,9.3,16.6z M8.1,16.6H7.5
			c-0.1,0-0.1-0.1-0.1-0.1s0.1-0.1,0.1-0.1h0.6c0.1,0,0.1,0.1,0.1,0.1S8.2,16.6,8.1,16.6z M7,16.6H6.4c-0.1,0-0.1-0.1-0.1-0.1
			s0.1-0.1,0.1-0.1H7c0.1,0,0.1,0.1,0.1,0.1S7,16.6,7,16.6z M5.8,16.6H5.2c-0.1,0-0.1-0.1-0.1-0.1s0.1-0.1,0.1-0.1h0.6
			c0.1,0,0.1,0.1,0.1,0.1S5.9,16.6,5.8,16.6z M4.6,16.6H4.1c-0.1,0-0.1-0.1-0.1-0.1s0.1-0.1,0.1-0.1h0.6c0.1,0,0.1,0.1,0.1,0.1
			S4.7,16.6,4.6,16.6L4.6,16.6z M15.9,16.6h-0.3c-0.1,0-0.1-0.1-0.1-0.1s0.1-0.1,0.1-0.1h0.3c0.1,0,0.1,0.1,0.1,0.1
			S16,16.6,15.9,16.6z"/>
		<path d="M17.4,9.5c-0.1,0-0.1-0.1-0.1-0.1V7.8c0-0.1,0.1-0.1,0.1-0.1c0.1,0,0.1,0.1,0.1,0.1v1.5C17.5,9.4,17.5,9.5,17.4,9.5z"/>
		<path d="M17.4,16c-0.1,0-0.1-0.1-0.1-0.1V14c0-0.1,0.1-0.1,0.1-0.1c0.1,0,0.1,0.1,0.1,0.1v1.8C17.5,15.9,17.5,16,17.4,16
			C17.4,16,17.4,16,17.4,16z"/>
	</g>
</g>
<g id="Layer_8" class="st0">
	<g class="st1">
		<g>
			<g>
				<circle class="st2" cx="4" cy="9.2" r="0.3"/>
				<circle class="st2" cx="5.2" cy="9.2" r="0.3"/>
				<path class="st2" d="M19.3,10.1L19,9.4c0,0,0,0,0,0c0-0.1-0.1-0.3-0.2-0.4c-0.5-0.5-1.5-0.8-3.3-0.8c0,0,0,0,0,0
					c0,0-0.1,0-0.1,0c0,0-0.1,0-0.1,0c0,0-0.1,0-0.1,0c0,0-0.1,0-0.1,0c0,0,0,0,0,0l-1.4-0.7l0,0c0.1-0.1,0-0.3-0.1-0.4
					c-0.1-0.1-0.3,0-0.4,0.1l0,0.1L12.4,7l0,0c0.1-0.1,0-0.3-0.1-0.4c-0.1-0.1-0.3,0-0.4,0.1l-0.1,0.1l-0.7-0.3l0-0.1
					c0.1-0.1,0-0.3-0.1-0.4c-0.1-0.1-0.3,0-0.4,0.1l-0.1,0.1L10,5.9L10,5.8c0.1-0.1,0-0.3-0.1-0.4c-0.1-0.1-0.3,0-0.4,0.1L9.4,5.6
					L8.6,5.2c-0.1-0.1-0.3,0-0.4,0.1c0,0-0.1,0.1-0.1,0.1c0,0,0,0,0,0c0,0,0,0.1-0.1,0.1c0,0,0,0,0,0c0,0,0,0,0,0
					C7.8,5.8,7.6,6,7.4,6.2C7.2,6.4,7.1,6.5,7,6.6C6.8,6.7,6.6,6.8,6.3,6.9C5.3,7.3,4.2,7.2,3,6.6c0,0,0,0,0,0c0,0-0.1,0-0.1,0
					c0,0-0.1,0-0.1,0c0,0,0,0-0.1,0c0,0-0.1,0-0.1-0.1c0,0,0,0,0,0c0,0-0.1,0-0.1,0C2.2,6.3,1.9,5.9,1.9,5.6c0-0.2-0.1-0.3-0.3-0.3
					S1.3,5.5,1.3,5.6c0,0.5,0.3,1,0.7,1.2C2,7,2,7.1,2,7.2C1.9,7.6,1.8,8.1,1.7,8.5c0,0.1,0,0.1,0,0.1c-0.2,1-0.3,1.6-0.4,1.7
					c0,0,0,0,0,0.1c0,0,0,0,0,0c0,0,0,0,0,0v1.8c0,0.2,0.1,0.3,0.3,0.3c0,0,0,0,0.2,0c0.2,0,0.3,0,0.5,0c0.5,0,1.1,0,1.8,0
					c1.9,0,3.7,0.1,5.5,0.1c0.9,0,1.8,0,2.6,0.1c0.5,0,1,0,1.5,0c2.5,0.1,4.2-0.4,5.3-1.2C19.4,11.4,19.5,10.7,19.3,10.1z M2.7,7.2
					c0,0,0.1,0,0.1,0.1c0,0,0,0,0,0C4.5,8,6,7.9,7.3,7.1C7.4,7,7.6,6.9,7.7,6.8l-1.1,3.7c-0.6,0-1.2-0.1-1.8-0.1
					c-0.8,0-1.6-0.1-2.3-0.1c-0.2,0-0.4,0-0.5,0c0.1-0.3,0.2-0.8,0.3-1.4c0-0.1,0-0.1,0-0.1c0.1-0.4,0.2-0.9,0.3-1.3
					c0-0.1,0-0.1,0-0.2C2.6,7.1,2.7,7.2,2.7,7.2C2.7,7.2,2.7,7.2,2.7,7.2z M15.2,8.9C15.2,8.9,15.2,8.9,15.2,8.9c0.1,0,0.1,0,0.1,0
					c0,0,0,0,0.1,0c1.7,0,2.6,0.2,2.9,0.6c0.1,0.1,0.1,0.2,0.1,0.3c-0.4,0.3-1.6,0.6-3.5,0.7l0,0L15.2,8.9z M8.7,7.4
					c0.1,0.1,0.3,0,0.4-0.1l0.5-0.9l0.7,0.3L9.8,7.6C9.7,7.7,9.8,7.9,9.9,8c0.1,0.1,0.3,0,0.4-0.1L10.9,7l0.7,0.3L11,8.2
					c-0.1,0.1,0,0.3,0.1,0.4c0.1,0.1,0.3,0,0.4-0.1l0.6-0.9l0.7,0.3l-0.6,0.9c-0.1,0.1,0,0.3,0.1,0.4c0.1,0.1,0.3,0,0.4-0.1l0.6-1
					l1.3,0.6l-0.3,1.8c-1.2,0.1-2.5,0.1-4.1,0.1c-1,0-2,0-3.1-0.1l1.4-4.6l0.5,0.2L8.6,7C8.5,7.1,8.6,7.3,8.7,7.4z M18.5,11.2
					c-1,0.7-2.5,1.1-4.9,1c-0.5,0-0.9,0-1.5,0c-0.8,0-1.7,0-2.6-0.1c-1.7,0-3.6-0.1-5.5-0.1c-0.7,0-1.3,0-1.8,0c-0.2,0-0.3,0-0.4,0
					v-1.2c0.2,0,0.4,0,0.6,0c0.7,0,1.5,0.1,2.3,0.1c1.9,0.1,3.7,0.2,5.5,0.2c0.4,0,0.8,0,1.2,0c0,0,0,0,0,0c0.1,0,0.1,0,0.2,0
					c0,0,0,0,0,0c0.1,0,0.1,0,0.2,0c0,0,0,0,0,0c0.4,0,0.8,0,1.1,0c0,0,0,0,0,0c0,0,0.1,0,0.1,0c0,0,0,0,0,0c0,0,0.1,0,0.1,0
					c0,0,0,0,0.1,0c0,0,0.1,0,0.1,0c0,0,0,0,0.1,0c0,0,0.1,0,0.1,0c0,0,0,0,0.1,0c0,0,0.1,0,0.1,0c0,0,0,0,0.1,0c0,0,0.1,0,0.1,0
					c0,0,0,0,0.1,0c0,0,0.1,0,0.1,0c0,0,0,0,0.1,0c0,0,0.1,0,0.1,0c0,0,0,0,0.1,0c0,0,0.1,0,0.1,0c0,0,0.1,0,0.1,0c0,0,0.1,0,0.1,0
					c0,0,0.1,0,0.1,0c0,0,0,0,0.1,0c0,0,0.1,0,0.1,0c0,0,0,0,0.1,0c0,0,0.1,0,0.1,0c0,0,0,0,0.1,0c0,0,0.1,0,0.1,0c0,0,0,0,0.1,0
					c0,0,0.1,0,0.1,0c0,0,0,0,0.1,0c0,0,0.1,0,0.1,0c0,0,0,0,0.1,0c0,0,0.1,0,0.1,0c0,0,0,0,0.1,0c0,0,0.1,0,0.1,0c0,0,0,0,0,0
					c0,0,0.1,0,0.1,0c0,0,0,0,0,0c0,0,0.1,0,0.1,0c0,0,0,0,0,0c0.1,0,0.2,0,0.3,0c0,0,0,0,0,0c0,0,0.1,0,0.1,0c0,0,0,0,0,0
					c0,0,0.1,0,0.1,0c0,0,0,0,0,0c0,0,0.1,0,0.1,0c0,0,0,0,0,0c0,0,0.1,0,0.1,0c0,0,0,0,0,0c0,0,0.1,0,0.1,0c0,0,0,0,0,0
					c0,0,0.1,0,0.1,0c0,0,0,0,0,0c0,0,0.1,0,0.1,0c0,0,0,0,0,0c0,0,0.1,0,0.1,0c0,0,0,0,0,0c0.1,0,0.3-0.1,0.4-0.1c0,0,0,0,0,0
					c0,0,0.1,0,0.1,0c0,0,0,0,0,0c0,0,0,0,0.1,0c0,0,0,0,0,0c0,0,0,0,0.1,0c0,0,0,0,0,0c0,0,0,0,0.1,0c0,0,0,0,0,0c0,0,0,0,0.1,0
					c0,0,0,0,0,0c0,0,0,0,0.1,0c0,0,0,0,0,0c0,0,0,0,0.1,0c0,0,0,0,0,0c0.1,0,0.1-0.1,0.2-0.1c0,0,0,0,0,0c0,0,0,0,0.1,0
					c0,0,0,0,0,0c0,0,0,0,0,0c0,0,0,0,0,0c0,0,0,0,0,0l0,0C18.9,10.7,18.8,11,18.5,11.2z"/>
			</g>
		</g>
	</g>
</g>
<g id="Layer_9" class="st0">
	<g class="st1">
		<g>
			<g>
				<path class="st2" d="M18.7,9.5c0-4.4-2.7-7.5-6.5-7.6c-0.1-0.4-0.5-0.6-0.9-0.6H8.7c-0.4,0-0.8,0.3-0.9,0.6C4,2,1.4,5.1,1.3,9.5
					c-0.6,0.3-1,1-1,1.7c0,1,0.8,1.8,1.8,1.9c0.1,0.6,0.4,1.1,0.7,1.7L3,14.9c1,1.6,2.5,3.9,6.3,3.9h1.3c3.9,0,5.3-2.2,6.3-3.9
					l0.1-0.2c0.3-0.5,0.6-1.1,0.7-1.7c1-0.1,1.8-0.9,1.8-1.9C19.6,10.4,19.2,9.8,18.7,9.5z M2.2,10L2.2,10c-0.1,0.2-0.1,0.5-0.2,0.7
					l0,0c0,0,0,0,0,0C2,11.2,2,11.6,2,12.1c0,0.1,0,0.2,0,0.2c0,0,0,0,0,0.1c-0.6-0.1-1-0.6-1-1.3c0-0.7,0.6-1.3,1.3-1.3h0
					C2.3,9.9,2.3,9.9,2.2,10z M11.6,13v1c0,0.2-0.1,0.3-0.3,0.3H9.4C9.2,14.3,9,14.2,9,14v-1c-2.6-0.1-5.1-0.8-6.4-1.8
					c0-0.2,0.1-0.5,0.1-0.7c1.1,1,3.6,1.7,6.3,1.9v-0.9c0-0.2,0.1-0.3,0.3-0.3h1.9c0.2,0,0.3,0.1,0.3,0.3v0.9
					c2.4-0.2,4.6-0.9,5.6-1.8c0.1,0.2,0.1,0.5,0.1,0.7C16.1,12.1,14,12.8,11.6,13z M16.5,8.2C16.5,8.2,16.5,8.2,16.5,8.2l-12.9,0
					c0,0-0.1,0-0.1,0c-0.1,0-0.5,0.2-0.9,1c-0.1,0-0.2,0-0.3,0c-0.1,0-0.2,0-0.3,0c0.1-4.5,2.9-6.6,5.8-6.8C8,2.8,8.3,3.1,8.7,3.1
					h2.6c0.4,0,0.8-0.3,0.9-0.6c2.9,0.1,5.7,2.2,5.8,6.8c-0.1,0-0.2,0-0.3,0c-0.1,0-0.2,0-0.3,0C17,8.4,16.6,8.3,16.5,8.2z M18,12.4
					C18,12.4,18,12.3,18,12.4c0-0.2,0-0.2,0-0.3c0-0.4,0-0.9-0.1-1.3c0,0,0,0,0,0l0,0c0-0.2-0.1-0.5-0.2-0.7c0-0.1,0-0.1-0.1-0.2h0
					c0.7,0,1.3,0.6,1.3,1.3C19,11.7,18.6,12.2,18,12.4z"/>
				<polygon class="st2" points="9.7,12.7 9.7,13.7 11,13.7 11,12.7 11,11.8 9.7,11.8 				"/>
			</g>
		</g>
	</g>
</g>
<g id="Layer_10" class="st0">
	<g class="st1">
		<g>
			<g>
				<path class="st2" d="M6.5,11.3c0,0.5,0.4,0.9,0.9,0.9s0.9-0.4,0.9-0.9c0-0.5-0.4-0.9-0.9-0.9S6.5,10.8,6.5,11.3z M8,11.3
					c0,0.2-0.1,0.3-0.3,0.3H7.1c-0.2,0-0.3-0.1-0.3-0.3S6.9,11,7.1,11h0.6C7.9,11,8,11.1,8,11.3z"/>
				<path class="st2" d="M4,6.6H2.4l-1.5,8.7c-0.1,0.6-0.1,1.2-0.1,1.7c0,0.6,0.1,1.1,0.2,1.4l0.2-0.2c0,0,2.7-2.5,2.7-11.3V6.6z"/>
				<path class="st2" d="M15.8,7.2L15.8,7.2c0-0.2,0-0.2,0-0.3l0-0.3c-0.4-2.1-1.9-5.3-5.2-5.3S5.7,4.5,5.3,6.6H4.6v0.3
					c0,9.2-2.8,11.7-2.9,11.8l-0.3,0.2c0.1,0.1,0.3,0.2,0.4,0.2h16.9c0.2,0,0.3-0.1,0.4-0.2l-0.3-0.2C18.7,18.6,15.9,16.2,15.8,7.2z
					 M9,11.3c0,0.9-0.7,1.6-1.6,1.6s-1.6-0.7-1.6-1.6c0-0.8,0.5-1.4,1.3-1.5V8.5H6.8c-0.4,0-0.7-0.3-0.7-0.7V7.2h0.6v0.6
					c0,0,0,0.1,0.1,0.1H8c0,0,0.1,0,0.1-0.1V6.6H7.2c0.1-0.4,0.3-1,0.6-1.5c0.7-1.3,1.6-2,2.8-2s2.1,0.7,2.8,2
					c0.3,0.5,0.4,1.1,0.6,1.5H8.7v1.2c0,0.4-0.3,0.7-0.7,0.7H7.7v1.3C8.4,9.9,9,10.5,9,11.3z"/>
				<path class="st2" d="M19.5,15.2L18,6.6h-1.6v0.3c0,8.6,2.5,11.1,2.7,11.3l0.2,0.1c0.1-0.3,0.2-0.8,0.2-1.4
					C19.6,16.4,19.6,15.8,19.5,15.2z"/>
			</g>
		</g>
	</g>
</g>
<g id="Layer_11" class="st0">
	<g id="People" class="st1">
		<g id="Icon-15" transform="translate(-10.000000, 0.000000)">
			<path id="watch" class="st5" d="M19.4,10.3c-0.2,0-0.3-0.1-0.3-0.3c0-0.2,0.1-0.3,0.3-0.3c0.2,0,0.3,0.1,0.3,0.3
				C19.7,10.2,19.6,10.3,19.4,10.3 M19.7,9.1V6.5c0-0.2-0.1-0.3-0.3-0.3c-0.2,0-0.3,0.1-0.3,0.3v2.6c-0.4,0.1-0.6,0.5-0.6,0.9
				c0,0.1,0,0.1,0,0.2L15.4,12c-0.2,0.1-0.2,0.3-0.1,0.4c0.1,0.1,0.2,0.2,0.3,0.2c0.1,0,0.1,0,0.2,0l3.1-1.8
				c0.2,0.1,0.4,0.2,0.6,0.2c0.5,0,1-0.4,1-1C20.4,9.6,20.1,9.3,19.7,9.1 M27,9.1V11c0,0.2-0.1,0.3-0.3,0.3s-0.3-0.1-0.3-0.3V9.1
				c0-0.2,0.1-0.3,0.3-0.3S27,8.9,27,9.1 M22.9,16.4l-0.3,2.9c0,0.2-0.2,0.3-0.3,0.3h-5.7c-0.2,0-0.3-0.1-0.3-0.3l-0.3-2.9
				c0-0.2,0.1-0.3,0.3-0.4c0.2,0,0.3,0.1,0.4,0.3l0.3,2.6h0.7v-1.6c0-0.2,0.1-0.3,0.3-0.3c0.2,0,0.3,0.1,0.3,0.3v1.6h2.5v-1.6
				c0-0.2,0.1-0.3,0.3-0.3s0.3,0.1,0.3,0.3v1.6H22l0.3-2.6c0-0.2,0.2-0.3,0.4-0.3C22.8,16.1,22.9,16.2,22.9,16.4 M15.9,3.6l0.3-2.9
				c0-0.2,0.2-0.3,0.3-0.3h5.7c0.2,0,0.3,0.1,0.3,0.3l0.3,2.9c0,0.2-0.1,0.3-0.3,0.4c0,0,0,0,0,0c-0.2,0-0.3-0.1-0.3-0.3L22,1.1
				h-0.7v1.6C21.3,2.9,21.2,3,21,3s-0.3-0.1-0.3-0.3V1.1h-2.5v1.6C18.1,2.9,18,3,17.8,3c-0.2,0-0.3-0.1-0.3-0.3V1.1h-0.7l-0.3,2.6
				c0,0.2-0.2,0.3-0.4,0.3C16,4,15.9,3.8,15.9,3.6 M22.5,14.8l-0.2-0.3c-0.1-0.2-0.3-0.2-0.4-0.1c-0.2,0.1-0.2,0.3-0.1,0.4l0.2,0.3
				c-0.7,0.3-1.4,0.6-2.3,0.6v-0.9c0-0.2-0.1-0.3-0.3-0.3c-0.2,0-0.3,0.1-0.3,0.3v0.9c-0.8,0-1.6-0.3-2.3-0.6l0.2-0.3
				c0.1-0.2,0-0.3-0.1-0.4c-0.2-0.1-0.3,0-0.4,0.1l-0.2,0.3c-0.7-0.4-1.2-1-1.7-1.7l0.3-0.2c0.2-0.1,0.2-0.3,0.1-0.4
				c-0.1-0.2-0.3-0.2-0.4-0.1l-0.3,0.2c-0.3-0.7-0.6-1.4-0.6-2.3h0.9c0.2,0,0.3-0.1,0.3-0.3c0-0.2-0.1-0.3-0.3-0.3h-0.9
				c0-0.8,0.3-1.6,0.6-2.3l0.3,0.2c0.1,0,0.1,0,0.2,0c0.1,0,0.2-0.1,0.3-0.2c0.1-0.2,0-0.3-0.1-0.4l-0.3-0.2c0.4-0.7,1-1.2,1.7-1.7
				l0.2,0.3c0.1,0.1,0.2,0.2,0.3,0.2c0.1,0,0.1,0,0.2,0C17,5.5,17.1,5.3,17,5.2l-0.2-0.3c0.7-0.3,1.4-0.6,2.3-0.6v0.9
				c0,0.2,0.1,0.3,0.3,0.3c0.2,0,0.3-0.1,0.3-0.3V4.3c0.8,0,1.6,0.3,2.3,0.6l-0.2,0.3c-0.1,0.2,0,0.3,0.1,0.4c0,0,0.1,0,0.2,0
				c0.1,0,0.2-0.1,0.3-0.2l0.2-0.3c0.7,0.4,1.2,1,1.7,1.7L23.9,7c-0.2,0.1-0.2,0.3-0.1,0.4c0.1,0.1,0.2,0.2,0.3,0.2
				c0.1,0,0.1,0,0.2,0l0.3-0.2c0.3,0.7,0.6,1.4,0.6,2.3h-0.9c-0.2,0-0.3,0.1-0.3,0.3c0,0.2,0.1,0.3,0.3,0.3h0.9
				c0,0.8-0.3,1.6-0.6,2.3l-0.3-0.2c-0.2-0.1-0.3,0-0.4,0.1c-0.1,0.2,0,0.3,0.1,0.4l0.3,0.2C23.8,13.8,23.2,14.4,22.5,14.8
				 M24.9,6.9C24.9,6.9,24.9,6.9,24.9,6.9C24.9,6.8,24.9,6.8,24.9,6.9c-0.6-1-1.4-1.8-2.3-2.3c0,0,0,0,0,0c0,0,0,0,0,0
				c-0.9-0.5-2-0.8-3.1-0.8c-1.1,0-2.2,0.3-3.1,0.8c0,0,0,0,0,0c0,0,0,0,0,0c-0.9,0.6-1.7,1.3-2.3,2.3c0,0,0,0,0,0c0,0,0,0,0,0
				c-0.5,0.9-0.8,2-0.8,3.1s0.3,2.2,0.8,3.1c0,0,0,0,0,0c0,0,0,0,0,0.1c0.5,0.9,1.3,1.7,2.3,2.2c0,0,0,0,0,0c0,0,0,0,0,0
				c0.9,0.5,2,0.8,3.1,0.8c1.1,0,2.2-0.3,3.1-0.8c0,0,0,0,0,0c0,0,0,0,0,0c0.9-0.5,1.7-1.3,2.3-2.2c0,0,0,0,0-0.1c0,0,0,0,0,0
				c0.5-0.9,0.8-2,0.8-3.1S25.4,7.8,24.9,6.9"/>
		</g>
	</g>
</g>
<g id="Layer_12" class="st0">
	<path class="st6" d="M19.3,8.4L15,3.9c-0.3-0.3-0.8-0.6-1.2-0.6l-1.4-0.2l-0.1-1.3c0,0,0,0,0,0c0,0,0,0,0,0c0,0,0,0,0,0
		c0,0,0,0,0,0c0,0,0,0,0,0c0,0,0,0,0,0c0,0,0,0,0,0c0,0,0,0,0,0c0,0,0,0,0,0c0,0,0,0,0,0c0,0,0,0,0,0c0,0,0,0,0,0c0,0,0,0,0,0
		c0,0,0,0,0,0c0,0,0,0,0,0c0,0,0,0,0,0c0,0,0,0,0,0c0,0,0,0,0,0c0,0,0,0,0,0c0,0,0,0,0,0c0,0,0,0,0,0c0,0,0,0,0,0c0,0,0,0,0,0
		c0,0,0,0,0,0c0,0,0,0,0,0c0,0,0,0,0,0c0,0,0,0,0,0c0,0,0,0,0,0c0,0,0,0,0,0c0,0,0,0,0,0c0,0,0,0,0,0c0,0,0,0,0,0h-4c0,0,0,0,0,0
		c0,0,0,0,0,0c0,0,0,0,0,0c0,0,0,0,0,0c0,0,0,0,0,0c0,0,0,0,0,0c0,0,0,0,0,0c0,0,0,0,0,0c0,0,0,0,0,0c0,0,0,0,0,0c0,0,0,0,0,0
		c0,0,0,0,0,0c0,0,0,0,0,0c-0.1,0-0.1,0.1-0.1,0.2L7.7,3.1L6.3,3.3C5.9,3.4,5.4,3.6,5.2,3.9L0.9,8.4C0.9,8.5,0.8,8.6,0.8,8.6v5.6
		c0,0.3,0.2,0.5,0.4,0.6v1c0,0.2,0.1,0.3,0.3,0.3h1.9c0.2,0,0.3-0.1,0.3-0.3v-1c0.2-0.1,0.4-0.3,0.4-0.6v-3.9l1.4-1.5v6.6
		c0,0.3,0.2,0.5,0.4,0.6v2.1c0,0.2,0.1,0.3,0.3,0.3h7.8c0.2,0,0.3-0.1,0.3-0.3v-2.1c0.3-0.1,0.5-0.3,0.5-0.7V8.9l1.4,1.5v3.9
		c0,0.3,0.2,0.5,0.4,0.6v1c0,0.2,0.1,0.3,0.3,0.3h1.9c0.2,0,0.3-0.1,0.3-0.3v-1c0.2-0.1,0.4-0.3,0.4-0.6V8.6
		C19.4,8.6,19.3,8.5,19.3,8.4z M12.6,13.8h1.5v1.7c0,0.1,0,0.1-0.1,0.1h-3.6V8c0-0.2-0.1-0.3-0.3-0.3S9.8,7.9,9.8,8v7.5H6.2
		c-0.1,0-0.1,0-0.1-0.1v-1.7h1.5c0.2,0,0.3-0.1,0.3-0.3c0-0.2-0.1-0.3-0.3-0.3H6.1v-5c0.4-0.5,0.6-0.9,0.6-1.6V3.8l1.3-0.2l1.9,1
		v2.2c0,0.2,0.1,0.3,0.3,0.3s0.3-0.1,0.3-0.3V4.7l1.9-1l1.3,0.2v2.8c0,0.6,0.2,1.1,0.6,1.6v5h-1.5c-0.2,0-0.3,0.1-0.3,0.3
		C12.3,13.6,12.5,13.8,12.6,13.8z M9.8,16.7H6.5v-0.6h3.3V16.7z M11.9,3.1L10.4,4c0.2-1,0.9-1.5,1.4-1.7L11.9,3.1z M10.1,3.1
		c-0.2-0.5-0.5-0.8-0.8-1h1.6C10.6,2.3,10.3,2.7,10.1,3.1z M9.8,4L8.3,3.1l0.1-0.9C8.8,2.4,9.6,2.9,9.8,4z M1.8,15.5v-0.6h1.3v0.6
		H1.8z M3.8,8.4c-0.2,0-0.3,0.1-0.3,0.3v5.6c0,0.1,0,0.1-0.1,0.1H1.5c-0.1,0-0.1,0-0.1-0.1V8.8l4.2-4.4C5.7,4.2,5.9,4.1,6.1,4v2.7
		c0,0.5-0.1,0.9-0.5,1.3L4.1,9.5V8.6C4.1,8.5,3.9,8.4,3.8,8.4z M6.5,17.3h3.3v0.6H6.5V17.3z M10.4,17.9v-1.8h3.2v0.6h-2.4
		c-0.2,0-0.3,0.1-0.3,0.3s0.1,0.3,0.3,0.3h2.4v0.6H10.4z M14.6,7.9c-0.4-0.4-0.5-0.7-0.5-1.3V4c0.2,0.1,0.4,0.2,0.5,0.3l4.2,4.4v5.5
		c0,0.1,0,0.1-0.1,0.1h-1.9c-0.1,0-0.1,0-0.1-0.1V8.6c0-0.2-0.1-0.3-0.3-0.3c-0.2,0-0.3,0.1-0.3,0.3v0.8L14.6,7.9z M17.1,15.5v-0.6
		h1.3v0.6H17.1z"/>
</g>
<g id="Layer_13" class="st0">
	<path class="st1" d="M15.5,3.6c-0.2-0.8-0.7-1-1.3-1.2c-0.2-0.1-0.4-0.1-0.7-0.3c-0.6-0.3-1-0.6-1.2-0.8c-0.1-0.1-0.1-0.2-0.2-0.3
		C12,1,11.9,0.8,11.7,0.7c-0.3-0.2-0.7-0.3-1.1-0.3S9.8,0.6,9.5,0.7C9.3,0.8,9.2,1,9.1,1.2c0,0.1-0.1,0.2-0.2,0.3
		C8.7,1.6,8.3,2,7.7,2.2C7.5,2.3,7.3,2.4,7.1,2.5C6.4,2.7,5.9,2.9,5.7,3.6c-0.3,0.9-1,12.5-1.1,13c0,0.1,0.1,0.2,0.2,0.2L6.4,17
		c0,0,0,0,0,0c0,0,0.1,0,0.1,0c0,0,0.1-0.1,0.1-0.1l0.9-7.7c0.1,0.5,0.2,0.9,0.2,1.1c0.1,0.5,0,1-0.2,1.7c-0.2,1.2-0.6,2.9-0.6,6.6
		c0,0.1,0.1,0.2,0.2,0.2h6.9c0.1,0,0.2-0.1,0.2-0.2c0-3.7-0.4-5.5-0.6-6.6c-0.2-0.7-0.3-1.2-0.2-1.7c0-0.2,0.1-0.6,0.2-1.1l0.9,7.7
		c0,0.1,0,0.1,0.1,0.1c0,0,0.1,0,0.1,0c0,0,0,0,0,0l1.5-0.2c0.1,0,0.2-0.1,0.2-0.2C16.5,16.1,15.7,4.6,15.5,3.6z M12.1,1.8
		c0.2,0.2,0.6,0.5,1,0.7c-0.1,1-0.5,6.9-2.1,8.6c-0.2,0-0.3,0.2-0.4,0.3l-0.2-0.1c0.1-0.5,0.2-0.9,0.3-1.3c0.5-1.6,0.8-3.3,1.1-5.2
		C12,3.6,12.1,2.5,12.1,1.8z M11.3,11.6V16h-0.2v-4.4c0-0.1,0.1-0.1,0.1-0.1S11.3,11.6,11.3,11.6z M10.7,11.9v0.4l-2.6-0.9
		c0-0.1,0-0.2,0-0.3L10.7,11.9z M9.5,2.2c0.8-0.1,1.5-0.1,2.3,0c0,0.6-0.1,1.5-0.2,2.6c-0.2,1.6-0.5,3.1-0.9,4.5
		C9.8,6.5,9.5,3.7,9.5,2.2z M9.7,1.1c0.3-0.1,0.6-0.2,0.9-0.2c0.3,0,0.6,0.1,0.9,0.2c0.1,0.1,0.2,0.2,0.2,0.4c0,0.1,0,0.2,0,0.4
		c-0.8-0.1-1.5-0.1-2.3,0c0-0.1,0-0.3,0-0.4c0,0,0,0,0,0c0,0,0,0,0,0C9.4,1.3,9.5,1.2,9.7,1.1z M9,1.8c0.1,1.4,0.3,4.8,1.3,8.2
		c-0.1,0.4-0.2,0.8-0.3,1.2C8.6,9.5,8.1,3.5,8,2.5C8.5,2.3,8.8,2,9,1.8z M5.2,16.5l-0.1,0c0-0.6,0.1-1.2,0.1-1.9l0.2,0L5.2,16.5z
		 M5.7,16.6l-0.1,0l0.2-1.9l0.2,0L5.7,16.6z M6.2,16.6l-0.1,0l0.2-1.9l0.1,0L6.2,16.6z M6.5,14.3l-1.3-0.1C5.5,9.9,5.9,4.3,6.1,3.7
		c0-0.1,0.1-0.2,0.1-0.3c0.2,1,0.6,3,1,4.5L6.5,14.3z M6.6,3.1C6.7,3,6.9,2.9,7.2,2.8c0.1,0,0.3-0.1,0.4-0.2
		c0.1,1.2,0.6,6.2,1.9,8.4l-1.4-0.5c0-0.1,0-0.3,0-0.4C7.9,9.1,6.9,4.6,6.6,3.1z M7.9,12c0-0.1,0-0.2,0.1-0.3l2,0.7
		c0,0.2,0,0.3,0,0.5v3.9H7.4C7.4,14.3,7.7,13,7.9,12z M7.6,18.4H7.3c0-0.4,0-0.8,0-1.2h0.3L7.6,18.4L7.6,18.4z M8.4,18.4H8v-1.2h0.4
		V18.4z M9.2,18.4H8.8v-1.2h0.4V18.4z M9.6,18.4v-1.2H10v1.2H9.6z M10.4,18.4v-1.2h0.4v1.2H10.4z M11.6,18.4h-0.4v-1.2h0.4V18.4z
		 M12.4,18.4H12v-1.2h0.4V18.4z M13.2,18.4h-0.4v-1.2h0.4V18.4z M13.9,18.4h-0.3v-1.2h0.3C13.9,17.6,13.9,18,13.9,18.4z M13.8,16.8
		h-3.4v-3.9c0-0.1,0-0.2,0-0.3l0.3,0.1v3.6c0,0.1,0.1,0.2,0.2,0.2h0.6c0.1,0,0.2-0.1,0.2-0.2v-0.9h0.4c0.1,0,0.2-0.1,0.2-0.2v-2.9
		l0.9-0.5c0,0.1,0,0.2,0.1,0.3C13.5,13,13.7,14.3,13.8,16.8z M11.7,12.1v-0.3l1.4-0.7c0,0.1,0,0.2,0,0.3L11.7,12.1z M11.9,12.4V15
		h-0.2v-2.4L11.9,12.4z M13.1,10.2c0,0.1,0,0.3,0,0.4l-1.4,0.8c0-0.1-0.1-0.1-0.1-0.1c1.5-1.9,2-7.3,2-8.6c0.2,0.1,0.3,0.1,0.4,0.2
		c0.3,0.1,0.5,0.2,0.6,0.3C14.3,4.6,13.3,9.1,13.1,10.2z M14,8c0.3-1.6,0.8-3.5,1-4.6C15,3.5,15,3.6,15.1,3.7
		c0.2,0.6,0.6,6.2,0.9,10.5l-1.3,0.1L14,8z M15,16.6l-0.2-1.9l0.1,0l0.2,1.9L15,16.6z M15.5,16.6l-0.2-1.9l0.2,0l0.2,1.9L15.5,16.6z
		 M16,16.5l-0.2-1.9l0.2,0c0,0.7,0.1,1.3,0.1,1.9L16,16.5z"/>
</g>
<g id="Layer_14" class="st0">
	<path class="st1" d="M17.3,16.2L16.3,6.2c-0.1-0.8-0.5-1.5-1.2-1.9l-0.8-0.4c0-0.2,0-0.9-0.2-1.7c0,0,0,0,0,0h0c0,0,0,0,0,0
		c-0.1-0.2-0.2-0.4-0.4-0.5C12.9,1,12,0.8,11.4,0.7c-0.6-0.1-1.7-0.1-2.4,0C8.3,0.8,7.5,1,6.7,1.6C6.5,1.7,6.4,1.9,6.3,2.1
		c0,0,0,0,0,0C6.1,2.9,6.1,3.6,6.1,3.8L5.3,4.3C4.6,4.6,4.1,5.3,4,6.2L3.1,16.2c0,0.3,0,0.5,0.1,0.8l0.1,0.3l0,0.8
		c0,0.1,0.1,0.2,0.2,0.2l1.1,0.3c0.1,0,0.1,0,0.2,0c0,0,0.1-0.1,0.1-0.1l0.2-0.8c0.1-0.1,0.2-0.3,0.3-0.4c0.1-0.2,0.1-0.3,0.1-0.5
		l0.5-4.3c0,1.5,0,3.2-0.1,4.3c0,0.4,0.1,0.7,0.4,0.9v1.2c0,0.1,0.1,0.2,0.2,0.2c1.2,0.3,2.5,0.4,3.7,0.4s2.5-0.1,3.7-0.4
		c0.1,0,0.2-0.1,0.2-0.2v-1.2c0.3-0.2,0.4-0.5,0.4-0.9c-0.1-1.1-0.1-2.8-0.1-4.3l0.5,4.3c0,0.3,0.2,0.7,0.4,0.9l0.2,0.8
		c0,0.1,0,0.1,0.1,0.1c0,0,0.1,0,0.1,0c0,0,0,0,0,0l1.1-0.3c0.1,0,0.2-0.1,0.2-0.2l0-0.8l0.1-0.3C17.2,16.8,17.3,16.5,17.3,16.2z
		 M13.8,3c0.1,0.4,0.1,0.7,0.1,0.8c-0.7,0.5-1.6,0.9-2.4,1.1c0.2-0.2,0.5-0.3,0.8-0.5C13,3.9,13.6,3.4,13.8,3z M8.3,4.1
		c-0.5-0.4-1-0.7-1.3-1.1c0.8-0.5,1.6-0.7,2.1-0.8c0.6-0.1,1.4-0.1,1.9,0c0.6,0.1,1.4,0.3,2.1,0.8c-0.3,0.3-0.7,0.7-1.3,1
		c-0.8,0.5-1.6,1-1.9,1.1C9.9,5.1,9.1,4.7,8.3,4.1z M6.7,2.2C6.7,2.2,6.7,2.2,6.7,2.2C6.7,2.2,6.7,2.2,6.7,2.2
		C6.7,2.2,6.7,2.2,6.7,2.2C6.7,2.2,6.7,2.2,6.7,2.2c0-0.1,0.1-0.2,0.2-0.3c0.7-0.5,1.4-0.7,2-0.8c0.7-0.1,1.8-0.1,2.6,0
		c0.6,0.1,1.3,0.4,2,0.8c0.1,0.1,0.2,0.2,0.2,0.3c0,0,0,0,0,0c0,0,0,0,0,0c0,0,0,0,0,0c0,0.1,0,0.3-0.2,0.5
		c-0.8-0.6-1.7-0.8-2.4-0.9c-0.5-0.1-1.4-0.1-1.9,0C8.6,2,7.7,2.2,6.8,2.7C6.7,2.5,6.7,2.4,6.7,2.2z M6.5,3c0.3,0.4,0.8,0.9,1.6,1.4
		c0.3,0.2,0.5,0.3,0.8,0.5C8.1,4.7,7.2,4.4,6.5,3.8C6.5,3.7,6.5,3.4,6.5,3z M3.8,17.9l0-0.4l0.8,0.2l-0.1,0.4L3.8,17.9z M6.7,18.6
		v-0.9c2.3,0.6,4.7,0.6,7,0v0.9C11.4,19.1,9,19.1,6.7,18.6z M15.8,18.1l-0.1-0.4l0.8-0.2l0,0.4L15.8,18.1z M16.7,16.8l-0.1,0.2
		l-1,0.2c-0.2-0.2-0.2-0.4-0.3-0.7c0,0,0,0,0,0l-0.8-7.5c0-0.1-0.1-0.2-0.2-0.2c-0.1,0-0.2,0.1-0.2,0.2c0,0.1-0.1,5.2,0,7.5
		c0,0.3-0.2,0.6-0.5,0.7C11.4,18,9,18,6.8,17.4c-0.3-0.1-0.5-0.4-0.5-0.7c0.1-2.3,0-7.5,0-7.5C6.3,9.1,6.2,9,6.1,9
		C6,9,5.9,9.1,5.9,9.2l-0.8,7.5c0,0,0,0,0,0c0,0.1,0,0.3-0.1,0.4c0,0.1-0.1,0.2-0.2,0.3l-1-0.2l-0.1-0.2c-0.1-0.2-0.1-0.4-0.1-0.6
		L4.4,6.2c0.1-0.7,0.4-1.3,1-1.6l0.8-0.4C6.9,4.6,7.7,5,8.7,5.3c0,0,0.1,0,0.1,0V11c0,0.1,0.1,0.2,0.2,0.2s0.2-0.1,0.2-0.2V5.5
		c0.5,0.1,0.9,0.2,0.9,0.2c0,0,0,0,0,0c0,0,0,0,0,0c0,0,0,0,0,0c0,0,0.4-0.1,0.9-0.2V11c0,0.1,0.1,0.2,0.2,0.2s0.2-0.1,0.2-0.2V5.3
		c0,0,0.1,0,0.1,0c1-0.3,1.8-0.7,2.4-1.1l0.8,0.4c0.6,0.3,1,0.9,1,1.6l0.9,10.1C16.9,16.5,16.8,16.7,16.7,16.8z"/>
</g>
<g id="Layer_15" class="st0">
	<path class="st1" d="M17.8,3.8l-0.2-1.7c0-0.1,0-0.1-0.1-0.2c0,0-0.1,0-0.2,0c-2.4,0.5-4.9,0.8-7.3,0.8c-2.5,0-4.9-0.3-7.3-0.8
		c-0.1,0-0.1,0-0.2,0c0,0-0.1,0.1-0.1,0.2L2.3,3.8C2.1,4.2,0.3,9.7,0.3,17.1c0,0.1,0,0.1,0.1,0.2c0,0,0.4,0.3,1.7,0.5
		c1.7,0.3,4.3,0.5,7.5,0.5c0,0,0,0,0,0c0.1,0,0.2-0.1,0.2-0.2l0.2-2.2l0.2,2.2c0,0.1,0.1,0.2,0.2,0.2c0,0,0,0,0,0
		c3.2,0,5.8-0.2,7.5-0.5c1.3-0.2,1.6-0.5,1.7-0.5c0.1,0,0.1-0.1,0.1-0.2C19.7,9.7,17.9,4.2,17.8,3.8z M14,4.5c0.2,0.8,0.6,1.5,1.2,2
		c0.7,0.6,1.5,0.9,2.4,0.9c0.2,0,0.5,0,0.7-0.1c0,0.1,0.1,0.2,0.1,0.4c-0.3,0.1-0.5,0.1-0.8,0.1c-1,0-1.9-0.3-2.6-1
		c-0.7-0.6-1.1-1.3-1.3-2.2C13.7,4.6,13.8,4.5,14,4.5z M18.1,6.9c-0.2,0-0.4,0.1-0.6,0.1c-0.8,0-1.5-0.3-2.1-0.8
		c-0.5-0.4-0.9-1-1-1.7c1-0.1,2-0.3,3-0.5C17.5,4.3,17.8,5.3,18.1,6.9z M10,3.1c2.4,0,4.8-0.2,7.2-0.7l0.1,1.2
		c-1.8,0.4-3.6,0.6-5.5,0.7c-0.1,0-0.1-0.1-0.2-0.1l-0.9-0.4l0.7-0.1c0.1,0,0.2-0.1,0.2-0.2c0-0.1-0.1-0.2-0.2-0.2L10,3.4L8.6,3.2
		c-0.1,0-0.2,0.1-0.2,0.2c0,0.1,0.1,0.2,0.2,0.2l0.7,0.1L8.4,4.1c-0.1,0-0.1,0.1-0.2,0.1C6.4,4.2,4.5,3.9,2.7,3.6l0.1-1.2
		C5.2,2.9,7.6,3.1,10,3.1z M11.7,4.9c0,0.2-0.2,0.4-0.4,0.4c-0.1,0-0.3-0.1-0.3-0.2l-0.1-0.3c0.3,0,0.5,0,0.8,0
		C11.6,4.8,11.7,4.8,11.7,4.9z M8.4,4.7c0.3,0,0.5,0,0.8,0L9.1,5C9,5.2,8.9,5.2,8.7,5.2c-0.2,0-0.4-0.2-0.4-0.4
		C8.4,4.8,8.4,4.8,8.4,4.7z M9.1,4.3l0.5-0.2L9.4,4.3C9.3,4.3,9.2,4.3,9.1,4.3z M10.5,4.1L11,4.3c-0.1,0-0.2,0-0.4,0L10.5,4.1z
		 M6.4,4.6C6.3,5.4,5.8,6.2,5.2,6.8c-0.7,0.6-1.7,1-2.6,1c-0.3,0-0.5,0-0.8-0.1c0-0.1,0.1-0.3,0.1-0.4C2,7.3,2.3,7.4,2.5,7.4
		c0.9,0,1.7-0.3,2.4-0.9c0.6-0.5,1-1.2,1.2-2C6.2,4.5,6.3,4.6,6.4,4.6z M2.7,4c1,0.2,2,0.4,3,0.5c-0.2,0.7-0.5,1.2-1,1.7
		C4,6.7,3.3,6.9,2.5,6.9c-0.2,0-0.4,0-0.6-0.1C2.2,5.3,2.6,4.3,2.7,4z M2.3,17.3c-0.9-0.2-1.4-0.3-1.5-0.4c0-0.1,0-0.1,0-0.2
		c0.2,0.1,0.7,0.2,1.3,0.3c1.7,0.3,4.2,0.5,7.3,0.5l0,0.2C5.6,17.8,3.4,17.5,2.3,17.3z M10.2,13.9v-2.2c0-0.1-0.1-0.2-0.2-0.2
		c-0.1,0-0.2,0.1-0.2,0.2v2.2l-0.4,3.2c-6.4,0-8.3-0.7-8.7-0.9c0.1-3.2,0.5-6.1,0.9-8.2c0.3,0.1,0.6,0.1,0.9,0.1
		c1.1,0,2.1-0.4,2.9-1.1c0.7-0.6,1.3-1.5,1.4-2.5c0.4,0,0.7,0.1,1.1,0.1c0,0.1,0,0.1,0,0.2c0,0.4,0.4,0.8,0.8,0.8
		c0.3,0,0.6-0.2,0.7-0.5l0.2-0.5c0,0,0.1,0,0.1,0v1.5c0,0.1,0.1,0.2,0.2,0.2c0.1,0,0.2-0.1,0.2-0.2V4.7c0,0,0.1,0,0.1,0l0.2,0.5
		c0.1,0.3,0.4,0.5,0.7,0.5c0.4,0,0.8-0.4,0.8-0.8c0-0.1,0-0.1,0-0.2c0.4,0,0.7,0,1.1-0.1c0.2,1,0.7,1.8,1.4,2.5
		c0.8,0.7,1.8,1.1,2.9,1.1c0.3,0,0.6,0,0.9-0.1c0.4,2.1,0.8,5,0.9,8.2c-0.2,0.1-0.6,0.2-1.5,0.4c-1.1,0.2-3.3,0.4-7.1,0.5L10.2,13.9
		z M17.7,17.3c-1.1,0.2-3.3,0.4-7.1,0.5l0-0.2c3.1,0,5.6-0.2,7.3-0.5c0.7-0.1,1.1-0.2,1.3-0.3c0,0.1,0,0.1,0,0.2
		C19.1,17,18.7,17.2,17.7,17.3z"/>
</g>
<g id="Layer_16" class="st0">
	<g class="st1">
		<g>
			<g>
				<path class="st2" d="M14.1,5.1c-0.5,0-1,0.3-1.3,0.6c-0.3-0.4-0.8-0.6-1.3-0.6c-0.2,0-0.3,0.1-0.3,0.3c0,0.2,0.1,0.3,0.3,0.3
					c0.5,0,1,0.4,1,1c0,0.2,0.1,0.3,0.3,0.3c0.2,0,0.3-0.1,0.3-0.3c0-0.5,0.4-1,1-1c0.2,0,0.3-0.1,0.3-0.3
					C14.5,5.3,14.3,5.1,14.1,5.1z"/>
				<path class="st2" d="M19.5,16.4L16,3.8c0-0.4-0.5-1.1-3-1.8l-0.5-0.5c0,0,0,0,0,0l-0.4-0.4L12.1,1c-0.2-0.4-0.6-0.6-1-0.6H8.9
					c-0.4,0-0.8,0.2-1,0.6L7.8,1.1L7.4,1.5c0,0,0,0,0,0L7,2c-2.5,0.8-3,1.5-3,1.8L0.7,15.6c0,0,0,0,0,0c0,0,0,0,0,0l-0.2,0.7
					c-0.1,0.5,0.2,1,0.7,1.2l1,0.3c0.3,0.1,0.5,0,0.7-0.1c0.2-0.1,0.4-0.3,0.4-0.6l1.6-6v6.7c0,0.9,0.7,1.6,1.6,1.6h7
					c0.9,0,1.6-0.7,1.6-1.6v-6.7l1.4,5.3c0,0,0,0,0,0c0,0,0,0,0,0l0.2,0.7c0.1,0.3,0.2,0.5,0.4,0.6c0.2,0.1,0.5,0.2,0.7,0.1l1-0.3
					C19.3,17.4,19.6,16.9,19.5,16.4z M8.3,1.5C8.3,1.5,8.4,1.5,8.3,1.5l0.2-0.3C8.6,1.1,8.7,1,8.9,1h2.2c0.2,0,0.3,0.1,0.4,0.3
					l0.1,0.2c0,0,0,0.1,0.1,0.1l0.2,0.2c-0.4,0.7-1.1,1.1-1.9,1.1S8.5,2.5,8.1,1.8L8.3,1.5z M2.6,17.2c-0.1,0-0.2,0.1-0.2,0l-1-0.3
					c-0.2,0-0.3-0.2-0.2-0.4l0.1-0.4l1.6,0.5L2.7,17C2.7,17.1,2.6,17.1,2.6,17.2z M5.5,17.9V8.7c0-0.2-0.1-0.3-0.3-0.3c0,0,0,0,0,0
					c-0.1,0-0.3,0.1-0.3,0.2L3,16l-1.6-0.5L4.6,4c0,0,0-0.1,0-0.1c0-0.1,0.3-0.6,2.6-1.3c0.1,0,0.1,0,0.1-0.1l0.2-0.2
					C8.1,3,8.8,3.4,9.7,3.5v15.3H6.5C6,18.8,5.5,18.4,5.5,17.9z M15.1,8.7c0-0.2-0.2-0.3-0.3-0.2c-0.2,0-0.3,0.2-0.3,0.3v9.1
					c0,0.5-0.4,1-1,1h-3.2V3.5c0.8-0.1,1.6-0.6,2.1-1.3l0.2,0.2c0,0,0.1,0.1,0.1,0.1c2.3,0.7,2.6,1.2,2.6,1.3c0,0,0,0.1,0,0.1
					l3.2,11.6L17,16L15.1,8.7z M18.7,16.9l-1,0.3c-0.1,0-0.2,0-0.2,0c-0.1,0-0.1-0.1-0.2-0.2l-0.1-0.4l1.6-0.5l0.1,0.4
					C18.9,16.7,18.8,16.9,18.7,16.9z"/>
			</g>
		</g>
	</g>
</g>
<g id="Layer_17" class="st0">
	<g class="st1">
		<g id="c65_sport_shoes">
			<path class="st2" d="M19.1,14v-1.3c0-0.1-0.2-0.2-0.4-0.2H1c-0.2,0-0.4,0.1-0.4,0.2V14c0,0.1,0.2,0.2,0.4,0.2h17.7
				C18.9,14.1,19.1,14,19.1,14z"/>
			<path class="st2" d="M18.4,9.4c0,0-7.1-0.8-10.3-4.9c0,0-1.5-1.7-0.2,2.4c0,0,0.2,3-3.2,1.5c0,0-1.1-0.4-2.2-2.9
				c0,0-0.5-1-1.3-0.8C0.9,4.6,0.6,5,0.5,6.2v0.5h2.1v0.9H0.5v4.1H8l2-3.5h1l-1.9,3.5h1.2l1.3-2.2h1.1l-1.3,2.2h1.2l0.6-1.1h0.9
				l-0.6,1.1h5.5C19.1,11.7,20.6,9.9,18.4,9.4z"/>
		</g>
	</g>
</g>
<g id="Layer_18" class="st0">
	<g class="st1">
		<g>
			<path d="M19.5,7.4l-0.7-4.5C18.6,2,18,1.3,17.1,1.1l-2.1-0.5c-0.4-0.1-0.8-0.1-1.2-0.1H6.1c-0.4,0-0.8,0-1.2,0.1L2.9,1.1
				C2,1.3,1.4,2,1.3,2.9L0.5,7.4c0,0.1,0.1,0.3,0.2,0.3L4,8.9v10.3c0,0.2,0.1,0.3,0.3,0.3h11.4c0.2,0,0.3-0.1,0.3-0.3V8.9l3.3-1.2
				C19.5,7.6,19.5,7.5,19.5,7.4z M12.9,1c-0.1,1.4-1.4,2.6-2.9,2.6S7.3,2.5,7.1,1C7.1,1,12.9,1,12.9,1z M6.1,1h0.4
				C6.7,2.8,8.2,4.2,10,4.2s3.3-1.4,3.5-3.2h0.4c0.1,0,0.2,0,0.2,0c-0.1,1-0.5,1.9-1.2,2.7c-0.8,0.8-1.8,1.2-2.9,1.2
				c-1.1,0-2.1-0.4-2.9-1.2C6.4,3,5.9,2.1,5.9,1C6,1,6,1,6.1,1z M4,8.3l-2.9-1l0.1-0.6l2.8,1L4,8.3L4,8.3z M15.4,18.9H4.6v-0.7h10.8
				V18.9z M15.7,4.9c-0.2,0-0.3,0.1-0.3,0.3v12.4H4.6V5.2c0-0.2-0.1-0.3-0.3-0.3C4.1,4.9,4,5,4,5.2V7L1.3,6L1.8,3
				C1.9,2.3,2.4,1.8,3,1.7l2.1-0.5c0.1,0,0.1,0,0.2,0c0.1,1.1,0.6,2.2,1.4,3C7.6,5,8.8,5.5,10,5.5c1.3,0,2.4-0.5,3.3-1.4
				c0.8-0.8,1.3-1.9,1.4-3c0.1,0,0.1,0,0.2,0L17,1.7c0.6,0.2,1.1,0.7,1.2,1.3L18.7,6L16,7V5.2C16,5,15.9,4.9,15.7,4.9z M16,8.3V7.6
				l2.8-1l0.1,0.6L16,8.3z"/>
		</g>
	</g>
</g>
<g id="Layer_19" class="st0">
	<g class="st1">
		<g>
			<path class="st2" d="M16.8,12.9C16.8,12.9,16.8,12.9,16.8,12.9l-4.1-4.5c-0.2-0.2-0.3-0.4-0.3-0.6l0-7.1c0-0.2-0.1-0.3-0.3-0.3
				L7,0.3c0,0,0,0,0,0c-0.1,0-0.2,0-0.2,0.1C6.8,0.5,6.7,0.5,6.7,0.6v1.3l-3.5,0c0,0,0,0,0,0C3.1,1.9,3.1,1.9,3,2
				C2.9,2.1,2.9,2.1,2.9,2.2v8.1c0,1,0.4,2,1,2.7l4.7,5.3c0.5,0.6,1.2,0.9,2,1c0.1,0,0.1,0,0.2,0c0.7,0,1.4-0.3,1.9-0.8
				c0.3-0.3,0.6-0.7,0.7-1.1c0.3,0.1,0.6,0.2,1,0.2c0.1,0,0.1,0,0.2,0c0.7,0,1.4-0.3,1.9-0.8C17.7,15.9,17.8,14.1,16.8,12.9z
				 M11.8,7.7c0,0.4,0.1,0.8,0.4,1l3.7,4.1l-3.5,2.9l-2.9-3.3c0.6-0.6,1-1.4,1-2.3c0-1.7-1.4-3.1-3.1-3.1c0,0,0,0,0,0V3.5h4.5
				L11.8,7.7z M11.1,0.9l0.7,0l0,1.9h-0.7V0.9z M9.8,0.9l0.7,0v1.9H9.8V0.9L9.8,0.9z M8.6,0.9l0.7,0v1.9H8.6V0.9z M7.3,2.2
				C7.3,2.2,7.3,2.2,7.3,2.2C7.3,2.2,7.3,2.2,7.3,2.2V0.9l0.7,0v1.9H7.3V2.2z M7.3,7.7C7.3,7.7,7.3,7.7,7.3,7.7
				c1.4,0,2.6,1.1,2.6,2.6c0,0.7-0.3,1.3-0.8,1.8l-0.9-1c-0.6-0.6-0.9-1.5-0.9-2.3L7.3,7.7L7.3,7.7z M6,2.5l0.7,0v1.9H6V2.5z
				 M4.8,2.5l0.7,0v1.9H4.8V2.5z M3.5,2.5l0.7,0v1.9H3.5V2.5z M4.4,12.6c-0.6-0.6-0.9-1.5-0.9-2.3v-1c0,0,0,0,0,0
				c1.4,0,2.6,1.1,2.6,2.6c0,0.7-0.3,1.3-0.8,1.8L4.4,12.6z M8.6,17.3l-2.9-3.3c0.6-0.6,1-1.4,1-2.3c0-1.7-1.4-3.1-3.1-3.1
				c0,0,0,0,0,0V5h3.2v3.6c0,1,0.4,2,1,2.7l3.4,3.8L8.6,17.3z M12.4,18.1c-0.5,0.4-1,0.6-1.7,0.6c-0.6,0-1.2-0.3-1.6-0.8L9,17.8
				l2.5-2.1l1,1.1c0.1,0.2,0.3,0.3,0.5,0.4C12.9,17.5,12.6,17.9,12.4,18.1z M16.2,16.5c-0.5,0.4-1,0.6-1.7,0.6
				c-0.6,0-1.2-0.3-1.6-0.8l-0.1-0.2l3.5-2.9l0,0C17.2,14.3,17.1,15.7,16.2,16.5z"/>
		</g>
	</g>
</g>
<g id="Layer_20" class="st0">
	<g class="st1">
		<g>
			<path class="st2" d="M17.5,6c-0.5-0.3-1-0.2-1.5,0.3l-0.8,0.8c-0.1,0.1-0.1,0-0.2,0c0,0-0.1,0-0.1-0.1V3.6C15,2.8,14.6,2,14,1.5
				c-0.7-0.5-1.5-0.7-2.4-0.5L10,1.4C9.3,1.6,8.6,2.1,8.2,2.7c-0.7-0.1-1.4,0.2-2,0.7c-0.6,0.5-0.9,1.3-0.9,2v3.4
				c0,0.1-0.1,0.1-0.1,0.1c0,0-0.1,0-0.2,0L4.3,8.1c-0.4-0.4-1-0.5-1.5-0.3C2.4,8.1,2.2,8.7,2.4,9.2l2.9,7C5.1,16.3,5,16.5,5,16.7
				v1.8c0,0.3,0.3,0.6,0.6,0.6h5.8c0.3,0,0.6-0.3,0.6-0.6v-1.2h2.8c0.3,0,0.6-0.3,0.6-0.6v-1.8c0-0.2-0.1-0.3-0.2-0.5l2.9-7
				C18.2,6.9,18,6.3,17.5,6z M2.9,9C2.9,9,2.9,9,2.9,9c-0.1-0.3,0-0.5,0.2-0.7c0.4-0.2,0.7,0.1,0.8,0.2l0.8,0.8
				c0.2,0.2,0.5,0.3,0.8,0.2c0.3-0.1,0.4-0.4,0.4-0.7V5.4c0-0.6,0.3-1.2,0.7-1.6C7,3.5,7.5,3.3,8,3.3C7.8,3.6,7.8,4,7.8,4.3v2.9
				c0,1.2,0.1,2.3,0.4,3.5l0.1,0.5c0.2,0.9,0.4,1.9,0.4,2.9v0.3c-0.2,0.1-0.3,0.3-0.3,0.5v1.2H5.8L2.9,9z M11.4,18.5
				C11.4,18.5,11.4,18.5,11.4,18.5l-5.8,0c0,0,0,0,0,0v-1.8c0,0,0,0,0,0c0,0,0,0,0,0c0,0,0,0,0,0h2.8v0c0,0.3,0.3,0.6,0.6,0.6h2.5
				L11.4,18.5L11.4,18.5z M14.8,16.7L14.8,16.7C14.8,16.7,14.8,16.7,14.8,16.7l-5.8,0c0,0,0,0,0,0v-1.8c0,0,0,0,0,0h5.8c0,0,0,0,0,0
				c0,0,0,0,0,0c0,0,0,0,0,0L14.8,16.7L14.8,16.7z M17.4,7.2C17.4,7.2,17.4,7.2,17.4,7.2l-2.9,7.1H9.3v-0.2c0-1-0.1-2-0.4-3
				l-0.1-0.5C8.5,9.5,8.3,8.3,8.3,7.2V4.3c0-1.1,0.7-2.1,1.8-2.4l1.6-0.4c0.7-0.2,1.3,0,1.9,0.4c0.5,0.4,0.8,1,0.8,1.7V7
				c0,0.3,0.2,0.5,0.4,0.7c0.3,0.1,0.6,0.1,0.8-0.2l0.8-0.8c0.1-0.1,0.4-0.4,0.8-0.2C17.5,6.7,17.6,6.9,17.4,7.2z"/>
		</g>
	</g>
</g>
<g id="Layer_21" class="st0">
	<g class="st1">
		<g>
			<path class="st2" d="M19.2,12.2c-0.2,0-0.3,0.1-0.3,0.3v0.6l-3.3,1l-2.3-2.1c-0.3-0.4-0.8-0.7-1.4-0.8c-0.2-0.6,0.1-1.3,0.7-1.6
				c0.2-0.1,0.4-0.1,0.7-0.2l0,0.2c0,0.1,0,0.2,0.1,0.2c0.1,0.1,0.1,0.1,0.2,0.1c0,0,0,0,0,0l1.3,0c0.2,0,0.3-0.1,0.3-0.3
				c0-0.2-0.1-0.3-0.3-0.3l-1,0l0-1.9l2.6,0l0,1.9l-0.4,0c-0.2,0-0.3,0.1-0.3,0.3c0,0.2,0.1,0.3,0.3,0.3c0,0,0,0,0,0l0.7,0
				c0.2,0,0.3-0.1,0.3-0.3l0-2.5c0-0.2-0.1-0.3-0.3-0.3c0,0,0,0,0,0l-0.4,0c-0.2-0.4-0.4-0.9-0.6-1.3c-0.7-1.1-1.6-2.1-2.7-2.8
				C11.9,2,10.7,1.6,9.4,1.5C8.1,1.4,6.7,1.6,5.5,2.2c-1.2,0.5-2.2,1.3-3,2.3C1.6,5.5,1,6.7,0.7,8c-0.3,1.5-0.3,3,0.1,4.4
				c0,0,0,0.1,0,0.1c0,0,0,0,0,0c0.1,0.4,0.2,0.7,0.4,1.1c0.1,0.2,0.2,0.4,0.3,0.6c0,0,0,0,0,0.1c0,0.1,0.1,0.2,0.2,0.3
				c0.1,0.1,0.2,0.1,0.3,0.2c0,0,0.1,0,0.1,0l6,3.4c0,0,0.1,0,0.1,0.1c0.1,0,0.1,0.1,0.2,0.1c0.2,0.1,0.5,0.2,0.8,0.2
				c0.2,0,0.4,0,0.5-0.1c0.4-0.1,0.7-0.2,1.1-0.3c0.1,0,0.1,0,0.2,0c0.7-0.2,1.4-0.4,1.9-1.1c0.3-0.4,0.4-0.8,0.4-1.3l2.3,2.1
				c0.1,0.1,0.1,0.1,0.2,0.1c0,0,0.1,0,0.1,0l3.3-1c0,0,0,0,0,0c0,0,0,0,0,0c0,0,0,0,0,0c0,0,0,0,0,0c0,0,0,0,0,0c0,0,0,0,0,0
				c0,0,0,0,0,0c0,0,0,0,0,0c0,0,0,0,0.1-0.1c0,0,0-0.1,0.1-0.1c0,0,0,0,0,0c0,0,0,0,0,0c0,0,0,0,0,0c0,0,0,0,0,0c0,0,0,0,0,0
				c0,0,0,0,0,0c0,0,0,0,0,0c0,0,0,0,0,0v-4.1C19.5,12.4,19.3,12.2,19.2,12.2z M12.8,14.7c-0.3,0.3-0.7,0.5-1.1,0.5c0,0,0,0-0.1,0
				c0,0,0,0,0,0c-0.9,0-1.6-0.7-1.7-1.7c0-0.5,0.1-0.9,0.5-1.3c0.3-0.3,0.7-0.5,1.1-0.5c0,0,0,0,0.1,0c0.5,0,0.9,0.2,1.2,0.6
				c0,0,0,0,0,0c0.2,0.3,0.4,0.7,0.4,1.1C13.2,13.9,13.1,14.4,12.8,14.7z M18.9,16.4L16,17.3l-2.6-2.4c0.3-0.4,0.5-1,0.4-1.5
				c0,0,0-0.1,0-0.1l2.3,2.1c0.1,0.1,0.1,0.1,0.2,0.1c0,0,0.1,0,0.1,0l2.4-0.7L18.9,16.4L18.9,16.4z M18.9,14.1l-2.4,0.7l-0.3-0.3
				l2.7-0.8V14.1L18.9,14.1z"/>
		</g>
	</g>
</g>
<g id="Layer_22" class="st0">
	<g class="st1">
		<g>
			<g>
				<path class="st2" d="M10.9,9c-1.2,1.3-3.1,1.2-3.2,1.2c0,0.4,0,8.5,0,9c0,0.1,0.1,0.2,0.2,0.2h1.6c0.1,0,0.2-0.1,0.2-0.2
					l1.2-7.7l1.2,7.7c0,0.1,0.1,0.2,0.2,0.2h1.6c0.1,0,0.2-0.1,0.2-0.2l0-9C14,10.2,12.1,10.3,10.9,9z"/>
			</g>
		</g>
		<g>
			<g>
				<path class="st2" d="M10.9,1.1c-0.3,0-0.6-0.1-0.8-0.3c0.3,0.5,0.5,0.9,0.8,1.3c0.4-0.7,0.4-0.6,0.8-1.3
					C11.4,1,11.2,1.1,10.9,1.1z"/>
			</g>
		</g>
		<g>
			<g>
				<path class="st2" d="M13.8,8.2V7.6h1.6v0V2.4c0-0.9-0.7-1.6-1.6-1.6v0c-0.2-0.1-0.8-0.2-1-0.3l-0.4,1.6l-0.9,0.2l0.2,0.8
					l-1.1,2.7V4.5L10,3.1l0.2-0.8L9.4,2.1L9,0.5l-1,0.3v0C7,0.8,6.3,1.5,6.3,2.4v5.2h1.6v0.6H6.3v1c0,0.1,0.1,0.2,0.2,0.2h1.2
					c0.1,0,0.2-0.1,0.2-0.2c0,0.1,0.1,0.2,0.2,0.2c2,0,2.7-1.8,2.7-1.8c0.5,1.1,1.5,1.8,2.7,1.8c0.1,0,0.2-0.1,0.2-0.2
					c0,0.1,0.1,0.2,0.2,0.2h1.2c0.1,0,0.2-0.1,0.2-0.2v-1L13.8,8.2L13.8,8.2z M13.3,4.4h-1.1V3.8h1.1V4.4z"/>
			</g>
		</g>
	</g>
</g>
<g id="Layer_23" class="st0">
	<g id="_x36_4px-Line" class="st1">
		<path id="Shape" class="st5" d="M14.9,11.1c-1.5-0.3-3.1-0.6-4-1.5c-1-1-1.6-3.3-1.6-4.9c0-1.2-0.9-2.1-2.3-2.1H1.3
			C1.1,2.6,1,2.8,1,3V16c0,0.6,0.5,1,1,1h16.5c0.6,0,1-0.5,1-1v-1.4C19.6,12,17.2,11.5,14.9,11.1L14.9,11.1z M18.9,14.3h-4.1v-2.6
			C16.8,12.1,18.7,12.5,18.9,14.3L18.9,14.3z M6.5,3.3L6.5,3.3c0,0.2,0.2,0.3,0.3,0.3h0c0.2,0,0.3-0.1,0.3-0.3
			c0.7,0.1,1.4,0.5,1.4,1.4c0,1.8,0.7,4.3,1.8,5.4c0.9,0.9,2.3,1.3,3.7,1.5v1c-0.2,0-0.3,0.1-0.3,0.3c0,0.2,0.1,0.4,0.3,0.4
			c0,0,0,0,0,0v1H1.7v-11H6.5L6.5,3.3z M18.5,16.4H2c-0.2,0-0.3-0.2-0.3-0.3v-1h17.2v1C18.9,16.2,18.7,16.4,18.5,16.4L18.5,16.4z"/>
		<path id="Shape_00000070094115886824011320000003042748117813925510_" class="st5" d="M8.6,11.1c0.1,0.1,0.1,0.1,0.2,0.2
			C8.9,11.3,9,11.4,9,11.4c0.1,0,0.2,0,0.2-0.1c0.1-0.1,0.1-0.4,0-0.5c0,0-0.1-0.1-0.1-0.1c-0.1-0.1-0.2-0.2-0.3-0.3
			c-0.1-0.2-0.3-0.2-0.5-0.1c-0.2,0.1-0.2,0.3-0.1,0.5C8.4,10.9,8.5,11,8.6,11.1L8.6,11.1z"/>
		<path id="Shape_00000139994739054539402400000002752058816652431501_" class="st5" d="M7.3,8.8C7.4,9,7.5,9.3,7.6,9.5
			c0.1,0.1,0.2,0.2,0.3,0.2c0,0,0.1,0,0.1,0c0.2-0.1,0.2-0.3,0.2-0.5C8.1,9,8,8.8,8,8.6C7.9,8.4,7.7,8.3,7.5,8.4
			C7.3,8.4,7.3,8.6,7.3,8.8L7.3,8.8z"/>
		<path id="Shape_00000120523802339293566130000017462959414020808589_" class="st5" d="M11.9,13c0.2,0.1,0.5,0.1,0.7,0.2
			c0,0,0,0,0.1,0c0.2,0,0.3-0.1,0.3-0.3c0-0.2-0.1-0.4-0.3-0.4c-0.2,0-0.4-0.1-0.6-0.1c-0.2,0-0.4,0.1-0.4,0.2
			C11.6,12.7,11.8,12.9,11.9,13L11.9,13z"/>
		<path id="Shape_00000073692441419639918980000011826530323896563881_" class="st5" d="M10,12.1c0.2,0.1,0.4,0.2,0.6,0.3
			c0,0,0.1,0,0.1,0c0.1,0,0.3-0.1,0.3-0.2c0.1-0.2,0-0.4-0.2-0.5c-0.2-0.1-0.4-0.2-0.6-0.3c-0.2-0.1-0.4,0-0.5,0.1
			C9.7,11.8,9.8,12.1,10,12.1L10,12.1z"/>
		<path id="Shape_00000095317619346467237310000001546963502555421356_" class="st5" d="M6.8,6.8c0,0.2,0.1,0.5,0.1,0.7
			c0,0.2,0.2,0.3,0.3,0.3c0,0,0.1,0,0.1,0c0.2,0,0.3-0.2,0.3-0.4c0-0.2-0.1-0.4-0.1-0.7c0-0.2-0.2-0.3-0.4-0.3
			C6.9,6.4,6.8,6.6,6.8,6.8L6.8,6.8z"/>
		<path id="Shape_00000029024172139663352720000004737726711119070344_" class="st5" d="M6.9,5.7C6.9,5.7,7,5.7,6.9,5.7
			c0.2,0,0.4-0.2,0.3-0.4c0-0.2,0-0.5-0.1-0.7c0-0.2-0.2-0.3-0.4-0.3c-0.2,0-0.3,0.2-0.3,0.4c0,0.2,0,0.5,0.1,0.7
			C6.6,5.6,6.8,5.7,6.9,5.7L6.9,5.7z"/>
		<path id="Shape_00000173847212603461039490000002522493339847331458_" class="st5" d="M3.4,12.9c0.6,0,1-0.5,1-1c0-0.6-0.5-1-1-1
			s-1,0.5-1,1C2.4,12.5,2.8,12.9,3.4,12.9L3.4,12.9z M3.4,11.6c0.2,0,0.3,0.2,0.3,0.3s-0.2,0.3-0.3,0.3S3,12.1,3,11.9
			S3.2,11.6,3.4,11.6L3.4,11.6z"/>
		<path id="Shape_00000131346866546983047290000009827104975312284859_" class="st5" d="M6.1,12.9c0.6,0,1-0.5,1-1c0-0.6-0.5-1-1-1
			s-1,0.5-1,1C5.1,12.5,5.6,12.9,6.1,12.9L6.1,12.9z M6.1,11.6c0.2,0,0.3,0.2,0.3,0.3s-0.2,0.3-0.3,0.3c-0.2,0-0.3-0.2-0.3-0.3
			S6,11.6,6.1,11.6L6.1,11.6z"/>
	</g>
</g>
<g id="Layer_24" class="st0">
	<g class="st1">
		<g transform="translate(0.000000,511.000000) scale(0.100000,-0.100000)">
			<path class="st2" d="M43.7,5093.6c-1.9-1-1.8-4.4,0.2-5.2c0.6-0.3,19.3-0.3,53.3-0.3c49.4,0.1,52.3,0.2,52.9,0.8
				c0.9,0.9,0.9,3.4,0,4.3c-0.6,0.6-3.6,0.7-53.1,0.8C55.6,5094.1,44.4,5094,43.7,5093.6z"/>
			<path class="st2" d="M39.6,5079.2c-5.2-5.4-11.1-15.5-14.7-24.9c-2.3-6.2-4.1-14.1-9.8-42.7c-9.7-48.4-12.3-62.8-12.2-66.4
				l0.1-3.1l3.4-2.3c9.1-6.3,23.6-11.9,38.6-14.9c8.9-1.8,12.7-2.1,23.8-2.1c11.1,0,12.3,0.2,13,2c0.2,0.6,3.6,16.1,7.5,34.5
				c3.9,18.5,7.2,33.6,7.3,33.6c0.1,0,3.9-15.5,8.4-34.3c4.5-18.9,8.5-34.5,8.8-34.8c1.2-1.3,14.8-1.4,24.9-0.2
				c11.3,1.3,24.2,4.7,34.8,9c7.3,3,15.5,7.9,18.1,10.8c1.3,1.4,1.3,1.6,1.1,3.7c-1,11.2-16,88.9-19.6,101.9
				c-3.1,10.9-9.9,23.3-16.6,30.3l-2.6,2.8H98.1H42.4L39.6,5079.2z M58.4,5072.9c0-6.7-1.7-14.3-4.4-19.9
				c-3.3-6.7-8.8-11.1-15.9-12.7c-2.4-0.5-10.5-0.9-10.9-0.5c-0.2,0.2,2.5,8.8,4.2,13.3c2.9,7.9,7.9,16.9,11.6,21.2l1.5,1.7h7h7
				V5072.9z M131.7,5073.7c0-3,0.6-8.9,1.4-12.5c2.6-13,9.8-22,20.4-25.7c3.1-1.1,8.7-1.9,13.3-1.9c3.4,0,3.9-0.1,3.9-0.6
				c0-1.1,16.7-84.8,17.2-86c0.1-0.3-1.4-1.4-3.7-2.8c-11.4-6.9-26.3-11.8-42.6-14.2c-5.9-0.9-17.6-1.5-20-1.1l-2.1,0.3l-9.7,39.3
				l-9.7,39.3l-1.2,0.9c-1.6,1.1-2,1.1-3.4-0.2c-1.1-1.1-1.2-1.6-9.6-40.5c-4.7-21.7-8.6-39.5-8.7-39.6s-2.9-0.3-6.3-0.4
				c-13.3-0.5-25.7,1.7-40.2,6.9c-5.8,2.1-15.1,6.6-19,9.1l-2.8,1.8l0.3,1.7c0.8,5.4,13.5,71.4,16.1,84.2l0.4,2h3.8
				c4.5,0,10.1,0.8,13.2,1.9c13.3,4.6,20.6,16.8,21.7,36.1l0.3,4.4h33.6h33.6L131.7,5073.7L131.7,5073.7z M154.1,5072.9
				c6.8-8.7,11.2-18,14.1-29.2c0.5-2,0.9-3.8,0.8-3.9c-0.5-0.4-8.5-0.1-10.9,0.5c-7.1,1.6-12.7,5.9-15.9,12.6
				c-2.7,5.5-4.4,13.2-4.4,19.9v3.2h7h7L154.1,5072.9z"/>
		</g>
	</g>
</g>
<g id="Layer_25">
	<path class="st7" d="M14.9,1.9c1.6,0.6,4.8,4.8,4.8,4.8l-3.2,3.2l-1.6-1.6v9.6H5.3V8.3L3.7,9.9L0.5,6.7c0,0,3.2-4.2,4.8-4.8
		c0.4-0.2,1.6,0,1.6,0c0,1.6,1.6,3.2,3.2,3.2s3.2-1.6,3.2-3.2C13.3,1.9,14.5,1.8,14.9,1.9z"/>
</g>
</svg>
