<?xml version="1.0" encoding="utf-8"?>
<!-- Generator: Adobe Illustrator 27.7.0, SVG Export Plug-In . SVG Version: 6.00 Build 0)  -->
<svg version="1.1" id="Capa_1" xmlns="http://www.w3.org/2000/svg" xmlns:xlink="http://www.w3.org/1999/xlink" x="0px" y="0px"
	 viewBox="0 0 20 20" style="enable-background:new 0 0 20 20;" xml:space="preserve">
<style type="text/css">
	.st0{fill:none;stroke:#000000;stroke-width:0.25;stroke-miterlimit:10;}
</style>
<g>
	<g>
		<polygon class="st0" points="10.3,8.6 11.2,3.6 10.5,2.6 10.8,1.9 9.8,1.9 10.1,2.6 9.4,3.6 		"/>
		<path class="st0" d="M15.4,17.3h1.4l-0.4-6l-0.7-7.9L12.4,2l-0.4-0.7l-0.4,1.4l-1.4,8.1L8.9,2.7L8.6,1.3L8.2,2L4.9,3.4l-0.7,7.9
			l-0.4,6h1.4l1.3-7.8L7,11.3l-1.4,5.9l4,1.8l0.7-3.5l0.7,3.5l4-1.8l-1.4-5.9l0.5-1.8L15.4,17.3z M14,6.3l-1.4,0.2l0.9-1.2L14,5.7
			V6.3z"/>
	</g>
</g>
<g>
	<path d="M7.2,16c0.3-0.2,0.7-0.1,1,0.2C7.9,16.2,7.5,16.1,7.2,16C7.2,16,7.2,16,7.2,16L7.2,16z"/>
</g>
<g>
	<path d="M12.2,16.2c0.2-0.3,0.6-0.4,1-0.2c0,0,0,0,0,0C12.8,16.1,12.4,16.2,12.2,16.2L12.2,16.2z"/>
</g>
</svg>
