<?xml version="1.0" encoding="utf-8"?>
<!-- Generator: Adobe Illustrator 27.7.0, SVG Export Plug-In . SVG Version: 6.00 Build 0)  -->
<svg version="1.1" xmlns="http://www.w3.org/2000/svg" xmlns:xlink="http://www.w3.org/1999/xlink" x="0px" y="0px"
	 viewBox="0 0 20 20" style="enable-background:new 0 0 20 20;" xml:space="preserve">
<style type="text/css">
	.st0{display:none;}
	.st1{display:inline;}
	.st2{fill:none;stroke:#000000;stroke-width:0.25;stroke-miterlimit:10;}
	.st3{display:inline;fill:none;stroke:#000000;stroke-width:0.25;stroke-miterlimit:10;}
</style>
<g id="suit" class="st0">
	<g class="st1">
		<g>
			<g>
				<polygon class="st2" points="10.3,8.6 11.2,3.6 10.5,2.6 10.8,1.9 9.8,1.9 10.1,2.6 9.4,3.6 				"/>
				<path class="st2" d="M15.4,17.3h1.4l-0.4-6l-0.7-7.9L12.4,2l-0.4-0.7l-0.4,1.4l-1.4,8.1L8.9,2.7L8.6,1.3L8.2,2L4.9,3.4l-0.7,7.9
					l-0.4,6h1.4l1.3-7.8L7,11.3l-1.4,5.9l4,1.8l0.7-3.5l0.7,3.5l4-1.8l-1.4-5.9l0.5-1.8L15.4,17.3z M14,6.3l-1.4,0.2l0.9-1.2L14,5.7
					V6.3z"/>
			</g>
		</g>
		<g>
			<path d="M7.2,16c0.3-0.2,0.7-0.1,1,0.2C7.9,16.2,7.5,16.1,7.2,16C7.2,16,7.2,16,7.2,16L7.2,16z"/>
		</g>
		<g>
			<path d="M12.2,16.2c0.2-0.3,0.6-0.4,1-0.2c0,0,0,0,0,0C12.8,16.1,12.4,16.2,12.2,16.2L12.2,16.2z"/>
		</g>
	</g>
</g>
<g id="shirt" class="st0">
	<g class="st1">
		<g>
			<g>
				<path class="st2" d="M11.5,10.1L11.5,10.1c-0.2,0-0.3,0.1-0.3,0.3s0.1,0.3,0.3,0.3s0.3-0.1,0.3-0.3S11.7,10.1,11.5,10.1z"/>
			</g>
		</g>
		<g>
			<g>
				<path class="st2" d="M11.5,14.5L11.5,14.5c-0.2,0-0.3,0.1-0.3,0.3c0,0.2,0.1,0.3,0.3,0.3c0.2,0,0.3-0.1,0.3-0.3
					S11.7,14.5,11.5,14.5z"/>
			</g>
		</g>
		<g>
			<g>
				<path class="st2" d="M11.5,7.9L11.5,7.9c-0.2,0-0.3,0.1-0.3,0.3c0,0.2,0.1,0.3,0.3,0.3s0.3-0.1,0.3-0.3
					C11.8,8.1,11.7,7.9,11.5,7.9z"/>
			</g>
		</g>
		<g>
			<g>
				<path class="st2" d="M11.5,12.3L11.5,12.3c-0.2,0-0.3,0.1-0.3,0.3c0,0.2,0.1,0.3,0.3,0.3c0.2,0,0.3-0.1,0.3-0.3
					C11.8,12.4,11.7,12.3,11.5,12.3z"/>
			</g>
		</g>
		<g>
			<g>
				<path class="st2" d="M18.3,14.8l-0.3-10c0-0.9-0.6-1.7-1.4-2l-3.1-1.1L13,0.9c0-0.1-0.1-0.1-0.2-0.1c0,0,0,0,0,0v0h-5v0
					c0,0,0,0,0,0c-0.1,0-0.2,0.1-0.2,0.1L6.9,1.7L3.9,2.8C3,3.1,2.5,3.9,2.4,4.8l-0.3,10c0,0.3,0.1,0.5,0.4,0.6l-0.1,1
					c0,0.3,0.1,0.5,0.4,0.6l1.8,0.7c0,0.3,0.2,0.5,0.4,0.6l4.4,1.2c0,0,0.1,0,0.1,0c0.1,0,0.1,0,0.2,0c0.1,0,0.1-0.1,0.1-0.2
					l0.3-2.5l0.3,2.5c0,0.1,0.1,0.2,0.1,0.2c0.1,0,0.2,0.1,0.2,0l4.4-1.2c0.3-0.1,0.4-0.3,0.4-0.6l1.8-0.7c0.2-0.1,0.4-0.3,0.4-0.6
					l-0.1-1C18.2,15.3,18.3,15.1,18.3,14.8z M13,2l-1.3,2c0,0,0,0,0,0c0,0,0,0,0,0l-1-0.8l2-1.7L13,2z M7.8,1.5l2,1.7L8.8,4
					c0,0,0,0,0,0c0,0,0,0,0,0L7.5,2L7.8,1.5z M4.7,17l-1.6-0.6c0,0,0,0,0,0l0-0.8l1.5,0.6V17z M10,14.4L10,14.4l-0.6,4.3l-4.1-1.1
					c0,0,0,0,0,0V6.3c0-0.2-0.1-0.3-0.3-0.3c-0.2,0-0.3,0.1-0.3,0.3v9.2l-1.9-0.7c0,0,0,0,0,0L3,4.8c0-0.6,0.4-1.2,1-1.4l2.9-1
					l1.2,2c0.1,0.1,0.2,0.2,0.4,0.3c0,0,0.1,0,0.1,0c0.1,0,0.3,0,0.4-0.1L10,3.8L10,14.4L10,14.4z M10.2,2.8L8.5,1.3H12L10.2,2.8z
					 M17.4,16.4L15.8,17l0-0.8l1.5-0.6L17.4,16.4C17.4,16.4,17.4,16.4,17.4,16.4z M17.7,14.9l-1.9,0.7l0-9.2c0-0.2-0.1-0.3-0.3-0.3
					c0,0,0,0,0,0c-0.2,0-0.3,0.1-0.3,0.3l0,11.3c0,0,0,0,0,0l-4.1,1.1l-0.6-4.3V3.8l0.8,0.6c0.1,0.1,0.2,0.1,0.4,0.1
					c0,0,0.1,0,0.1,0c0.2,0,0.3-0.1,0.4-0.3l1.2-2l2.9,1c0.6,0.2,1,0.8,1,1.4L17.7,14.9C17.7,14.9,17.7,14.9,17.7,14.9z"/>
			</g>
		</g>
		<g>
			<g>
				<path class="st2" d="M8.7,6.1H6.2C6,6.1,5.9,6.2,5.9,6.3v2.2c0,0.5,0.4,0.9,0.9,0.9h1.2C8.6,9.4,9,9,9,8.5V6.3
					C9,6.2,8.9,6.1,8.7,6.1z M8.4,8.5c0,0.2-0.1,0.3-0.3,0.3H6.8c-0.2,0-0.3-0.1-0.3-0.3V7.8c0.1,0,0.2,0.1,0.3,0.1h1.2
					c0.1,0,0.2,0,0.3-0.1L8.4,8.5L8.4,8.5z M8.4,7c0,0.2-0.1,0.3-0.3,0.3H6.8C6.6,7.3,6.5,7.2,6.5,7V6.6h1.9L8.4,7L8.4,7z"/>
			</g>
		</g>
		<g>
			<g>
				<circle class="st2" cx="11.5" cy="6" r="0.3"/>
			</g>
		</g>
	</g>
</g>
<g id="sneakers" class="st0">
	<g class="st1">
		<path class="st2" d="M19.2,9.9L19.2,9.9c0-0.3-0.2-0.5-0.6-0.7C18.1,9,17.3,8.8,16,8.8c0,0-0.1,0-0.1,0c-0.3,0-0.7,0-1.1-0.1
			c-0.6-0.1-0.9-0.3-1-0.6c0-0.1-0.1-0.2-0.2-0.2c0,0-0.1,0-0.1,0c-0.1,0-0.2,0-0.3,0c-0.1,0-0.2,0-0.3,0.1l-0.3-0.2
			c0-0.1-0.1-0.1-0.1-0.2c0,0-0.1-0.1-0.1-0.1c0,0,0,0,0,0c-0.2-0.2-0.5-0.3-0.8-0.2l-0.2-0.1c0,0,0-0.1-0.1-0.1
			c-0.2-0.3-0.4-0.4-0.8-0.3c0,0-0.1-0.1-0.2-0.1c-0.1,0-0.1-0.1-0.2-0.1c0,0,0-0.1-0.1-0.1C10.2,6.1,9.9,6,9.6,6.2c0,0-0.1,0-0.1,0
			C9.4,6.1,9.3,5.9,9.1,5.7C8.8,5.3,8.2,5,7.7,5c-0.6,0-1,0.5-0.8,1.3C6.9,6.3,6.8,6.4,6.7,6.5c-0.4,0.3-1,0.4-1.7,0.3
			c0,0-0.1,0-0.2,0c-0.1,0-0.3-0.1-0.4-0.1C4.2,6.5,4.1,6.4,4,6.3C3.8,6,3.2,5.8,2.7,5.8c-0.6,0-1.1,0.3-1,0.9c0,0.3,0,0.5,0,0.6
			c0,0-0.1,0-0.1,0.1C1.5,7.5,1.4,7.7,1.2,8c-0.4,0.8-0.5,1.6-0.3,2.5c0,0-0.1,0.1-0.1,0.1c-0.3,0.4-0.4,0.8-0.1,1.3c0,0,0,0,0,0.1
			c-0.2,0.3-0.2,0.7-0.1,1c0.2,0.6,1,1,2.4,1.1c0.1,0,0.2,0,0.2-0.1c0,0,0.1-0.1,0.2-0.1c0.2-0.1,0.3-0.1,0.4-0.1
			c0.1,0,0.3,0.1,0.4,0.4c0.1,0.1,0.2,0.2,0.3,0.2c0,0,0.1,0,0.2,0c0.2,0,0.3-0.1,0.5-0.1c0.5-0.1,1.1-0.2,1.6-0.4
			c0.4-0.1,0.8-0.3,1.1-0.4c0,0,0.1,0,0.2-0.1c0.2,0,0.3-0.1,0.4-0.1c0.2,0,0.4,0,0.4,0.1c0.3,0.3,1,0.7,1.6,0.9
			c0.9,0.2,1.6,0.1,1.9-0.5c0.1,0,0.1,0,0.2,0c0.1,0,0.2,0.1,0.2,0.2c0,0.1,0.1,0.1,0.2,0.2c0.1,0,0.2,0.1,0.3,0.1
			c0.3,0.1,0.6,0.1,0.9,0.1c0.4-0.1,0.7-0.3,1-0.6l0.2-0.1c0,0,0.1,0.1,0.2,0.1c0.3,0.1,0.5,0.2,0.8,0.2c0.4,0,0.7-0.3,0.9-0.7
			l0.3-0.2l0.2,0c0,0,0.1,0,0.1,0c0.2-0.1,0.5-0.3,0.8-0.5C19.5,11.9,19.8,11,19.2,9.9z M1.8,8.2C1.9,8.1,1.9,8,2,7.8
			c0,0,0-0.1,0.1-0.1c0.1,0,0.1-0.1,0.1-0.2c0.1-0.2,0.2-0.5,0.1-1c0-0.1,0.1-0.2,0.4-0.2c0.3,0,0.7,0.1,0.8,0.3
			C3.6,6.9,3.9,7,4.1,7.2c0.3,0.1,0.6,0.2,0.8,0.2C5.8,7.5,6.5,7.3,7,7c0.3-0.2,0.4-0.3,0.5-0.5c0-0.1,0.1-0.2,0-0.2
			c-0.1-0.5,0-0.6,0.2-0.6c0.3,0,0.7,0.2,0.9,0.5c0.2,0.3,0.5,0.5,0.7,0.6L8.6,7.5c-0.1,0.1-0.1,0.3,0,0.4C8.7,8,8.9,8,9.1,7.9l1-1
			c0.1,0.1,0.1,0.1,0.2,0.2c0.1,0.1,0.3,0.2,0.4,0.2L9.8,8.1c-0.1,0.1-0.1,0.3,0,0.4c0.1,0.1,0.3,0.1,0.4,0l0.9-0.9l0.4,0.3
			c0,0,0,0,0,0L11,8.6c-0.1,0.1-0.1,0.3,0,0.4c0.1,0.1,0.3,0.1,0.4,0l0.9-0.9c0,0,0,0,0,0l0.6,0.4c0.1,0.1,0.3,0.1,0.4,0
			c0.2,0.4,0.7,0.6,1.4,0.8c0.4,0.1,0.9,0.1,1.2,0.1c0,0,0.1,0,0.1,0c1.2,0,1.9,0.1,2.3,0.3c0.1,0.1,0.2,0.1,0.2,0.1l0,0v0
			c0,0,0,0,0,0c0,0,0,0,0,0c0,0,0,0,0,0.1c-0.1,0.1-0.1,0.2-0.2,0.4c-0.1,0.1-0.1,0.2-0.2,0.2c-0.1,0.1-0.1,0.2-0.2,0.2l0,0
			c0,0-0.1,0.1-0.2,0.2c-0.2,0.2-0.4,0.3-0.7,0.5c-0.9,0.4-2,0.7-3.3,0.7c0,0-0.1,0-0.1,0c-1.5,0-3.2-0.3-5.2-1
			c-0.1,0-0.3-0.1-0.7-0.2c-0.5-0.1-1-0.1-1.6-0.2c0,0,0,0-0.1,0c-0.1,0-0.1,0-0.2,0c0,0,0,0-0.1,0c-0.1,0-0.1,0-0.2,0
			c0,0-0.1,0-0.1,0c-0.1,0-0.1,0-0.2,0c0,0-0.1,0-0.1,0c0,0-0.1,0-0.1,0c-0.1,0-0.1,0-0.2,0c0,0-0.1,0-0.1,0c-0.1,0-0.1,0-0.2,0
			c0,0-0.1,0-0.1,0c-0.1,0-0.1,0-0.2,0c0,0-0.1,0-0.1,0c-0.1,0-0.2,0-0.2,0c0,0-0.1,0-0.1,0c-0.1,0-0.2,0-0.2,0c0,0-0.1,0-0.1,0
			c-0.1,0-0.3,0-0.6-0.1c-0.2,0-0.4-0.1-0.7-0.2c0,0,0,0,0,0c0,0-0.1,0-0.1,0c0,0,0,0-0.1,0c0,0-0.1,0-0.1,0c0,0-0.1,0-0.1,0
			c0,0-0.1,0-0.1,0c0,0-0.1,0-0.1,0c0,0-0.1,0-0.1-0.1c0,0,0,0,0,0c0,0,0,0,0,0C1.4,9.6,1.5,8.9,1.8,8.2z M18.3,12.1
			c-0.1,0.1-0.3,0.2-0.4,0.3c-0.1,0-0.1,0.1-0.1,0.1l-0.2,0c-0.1,0-0.1,0-0.2,0.1l-0.4,0.3c-0.1,0-0.1,0.1-0.1,0.1
			c-0.1,0.3-0.3,0.4-0.4,0.4c-0.1,0-0.3,0-0.5-0.1c-0.1-0.1-0.2-0.1-0.2-0.1c-0.1-0.1-0.2-0.1-0.3-0.1l-0.4,0.1
			c-0.1,0-0.1,0.1-0.2,0.2c-0.1,0.3-0.3,0.4-0.5,0.4c-0.2,0-0.4,0-0.6-0.1c0,0-0.1,0-0.1,0c-0.1-0.2-0.3-0.4-0.5-0.5
			c-0.2-0.1-0.4-0.1-0.6,0c0,0-0.1,0-0.1,0c-0.1,0-0.2,0.1-0.2,0.2c-0.1,0.4-0.5,0.5-1.2,0.3c-0.5-0.2-1.2-0.5-1.4-0.7
			c-0.2-0.2-0.5-0.3-0.9-0.3c-0.2,0-0.4,0-0.5,0.1c-0.1,0-0.3,0.1-0.3,0.1c-0.3,0.1-0.7,0.3-1.1,0.4c-0.5,0.1-1,0.3-1.5,0.4
			c-0.2,0-0.3,0.1-0.5,0.1c-0.2-0.3-0.5-0.5-0.8-0.6c-0.3,0-0.5,0.1-0.8,0.2c-0.1,0-0.1,0.1-0.2,0.1c-1.1-0.1-1.6-0.4-1.7-0.7
			c-0.1-0.1,0-0.3,0.1-0.5c0-0.1,0.1-0.1,0.1-0.2c0.1-0.1,0.1-0.3,0-0.4c-0.3-0.3-0.2-0.5-0.1-0.7c0,0,0,0,0,0
			c0.3,0.1,0.5,0.2,0.8,0.3c0,0,0,0,0.1,0c0,0,0,0,0,0c0.2,0.1,0.5,0.1,0.7,0.2c0.3,0.1,0.6,0.1,0.7,0.1c1.7-0.2,3-0.2,4,0
			c0.2,0,0.3,0.1,0.4,0.1c0.1,0,0.1,0,0.1,0c2.1,0.7,3.9,1.1,5.4,1.1c1.4,0,2.7-0.3,3.7-0.8c0.6-0.3,0.9-0.6,1.1-0.8
			c0.1-0.1,0.2-0.2,0.3-0.3c0.1-0.1,0.1-0.2,0.2-0.2C18.9,11.3,18.7,11.7,18.3,12.1z"/>
	</g>
</g>
<g id="belt" class="st0">
	<path id="Path_11" class="st3" d="M18,9.2h-0.7L18.1,9c0.1,0,0.2-0.2,0.2-0.3l-0.7-3c0-0.1-0.2-0.2-0.3-0.2c0,0,0,0,0,0L15,6l0-0.1
		c0-0.1-0.1-0.1-0.1-0.2c-0.1,0-0.1-0.1-0.2,0L13.6,6c-0.1,0-0.2,0.2-0.2,0.3l0,0.1l-1.9,0.4L11.3,6c0-0.1-0.1-0.1-0.1-0.2
		c-0.1,0-0.1-0.1-0.2,0L5.6,7.1c-0.1,0-0.2,0.2-0.2,0.3l0.2,0.8L1,9.3c-0.1,0-0.2,0.2-0.2,0.3l0.7,3l0,0c0,0.1,0.1,0.2,0.3,0.2H18
		c0.2,0,0.3-0.1,0.3-0.3V9.5C18.3,9.3,18.2,9.2,18,9.2z M17.7,8.6L17,8.7c0-0.1,0-0.3,0-0.4l-0.4-1.8c0-0.1-0.1-0.2-0.2-0.3l0.6-0.1
		L17.7,8.6z M15.6,6.4L15.6,6.4c0.2,0,0.4,0.1,0.4,0.3l0.4,1.8c0,0.2-0.1,0.4-0.3,0.4h0L15.8,9l-0.6-2.5L15.6,6.4z M14.6,6.3
		l0.7,3.1v0l0,0.1l-0.6,0.1l0-0.1c0,0,0,0,0,0l0,0l-0.7-3v0v0l0-0.1L14.6,6.3z M13.5,6.9l0.6,2.5l-1.9,0.4l-0.6-2.5L13.5,6.9z
		 M6,7.6l4.9-1.2L12,11L7,12.2l-0.1-0.5l4.1-1c0.1,0,0.2-0.2,0.2-0.3l-0.4-1.5c0,0,0,0,0,0l0,0l-0.4-1.5c0-0.1-0.2-0.2-0.3-0.2
		c0,0,0,0,0,0l-4.1,1L6,7.6z M10.1,7.7l0.2,1L7.7,9.3c-0.1,0-0.2,0.2-0.2,0.3c0,0.1,0.1,0.2,0.3,0.2c0,0,0,0,0.1,0l2.6-0.6l0.2,1
		l-8.7,2L1.4,9.8L10.1,7.7z M17.8,12.3h-9l3.6-0.8c0.1,0,0.2-0.2,0.2-0.3l-0.2-0.8l1.9-0.4l0,0.1c0,0.1,0.1,0.2,0.3,0.2
		c0,0,0,0,0.1,0l1.1-0.3c0.1,0,0.1-0.1,0.2-0.1c0,0,0,0,0-0.1h1.9L17.8,12.3z"/>
</g>
<g id="tie" class="st0">
	<g class="st1">
		<g>
			<path class="st2" d="M12.6,16.2l-1.3-6.5c0-0.2-0.2-0.3-0.4-0.2c-0.2,0-0.3,0.2-0.2,0.4l1.2,6.4l-2.2,2.5l-0.9-1.1
				c-0.1-0.1-0.3-0.1-0.4,0c-0.1,0.1-0.1,0.3,0,0.4l1.2,1.3c0.1,0.1,0.1,0.1,0.2,0.1c0.1,0,0.2,0,0.2-0.1l2.5-2.9
				C12.5,16.4,12.6,16.3,12.6,16.2z"/>
		</g>
	</g>
	<g class="st1">
		<g>
			<path class="st2" d="M14.4,0.6c-0.1-0.1-0.3-0.1-0.4,0L9.7,3.4L5.4,0.6C5.3,0.5,5.1,0.5,5,0.6C4.9,0.7,4.9,0.8,4.9,1L7,6
				c0,0.1,0.1,0.2,0.2,0.2c0,0,0,0,0.1,0c0.1,0,0.1,0,0.2-0.1L8,5.6l0.5,2l-1.6,8.6c0,0.1,0,0.2,0.1,0.3l0.7,0.8
				c0.1,0.1,0.1,0.1,0.2,0.1c0.1,0,0.1,0,0.2-0.1c0.1-0.1,0.1-0.3,0-0.4l-0.6-0.7l1.6-8.2h1.3l0.2,0.8c0,0.1,0.2,0.3,0.3,0.3
				c0,0,0,0,0.1,0c0.2,0,0.3-0.2,0.2-0.4l-0.2-1l0.5-2l0.6,0.5c0.1,0.1,0.1,0.1,0.2,0.1c0,0,0,0,0.1,0c0.1,0,0.2-0.1,0.2-0.2l2-5.1
				C14.5,0.8,14.5,0.7,14.4,0.6z M7.4,5.4L5.9,1.6l3.3,2.1L7.4,5.4z M10.3,7.3H9.1L8.6,5.2l1.1-1l1.1,1L10.3,7.3z M12,5.4l-1.8-1.6
				l3.3-2.1L12,5.4z"/>
			<path class="st2" d="M14.4,0.6c-0.1-0.1-0.3-0.1-0.4,0L9.7,3.4L5.4,0.6C5.3,0.5,5.1,0.5,5,0.6C4.9,0.7,4.9,0.8,4.9,1L7,6
				c0,0.1,0.1,0.2,0.2,0.2c0,0,0,0,0.1,0c0.1,0,0.1,0,0.2-0.1L8,5.6l0.5,2l-1.6,8.6c0,0.1,0,0.2,0.1,0.3l0.7,0.8
				c0.1,0.1,0.1,0.1,0.2,0.1c0.1,0,0.1,0,0.2-0.1c0.1-0.1,0.1-0.3,0-0.4l-0.6-0.7l1.6-8.2h1.3l0.2,0.8c0,0.1,0.2,0.3,0.3,0.3
				c0,0,0,0,0.1,0c0.2,0,0.3-0.2,0.2-0.4l-0.2-1l0.5-2l0.6,0.5c0.1,0.1,0.1,0.1,0.2,0.1c0,0,0,0,0.1,0c0.1,0,0.2-0.1,0.2-0.2l2-5.1
				C14.5,0.8,14.5,0.7,14.4,0.6z M7.4,5.4L5.9,1.6l3.3,2.1L7.4,5.4z M10.3,7.3H9.1L8.6,5.2l1.1-1l1.1,1L10.3,7.3z M12,5.4l-1.8-1.6
				l3.3-2.1L12,5.4z"/>
		</g>
	</g>
</g>
<g id="watch">
	<path d="M11.9,9.6l-1.6,0l-0.1-2.2c0-0.1-0.1-0.3-0.3-0.3c-0.1,0-0.3,0.1-0.3,0.3L9.7,9.9c0,0.2,0.1,0.3,0.3,0.3l1.9,0
		c0.2,0,0.3-0.1,0.3-0.3C12.2,9.8,12.1,9.6,11.9,9.6z"/>
	<path class="st2" d="M15.3,7.2l-1.4-3.4h-2v0.4H8.1V3.8h-2L4.7,7.2C4.3,8,4.1,8.9,4.1,9.9c0,1,0.2,1.9,0.6,2.7l1.4,3.4h2v-0.4
		l3.7,0v0.4h2l1.4-3.4c0.4-0.8,0.6-1.7,0.6-2.7C15.9,8.9,15.7,8,15.3,7.2z M10,14.3c-1.2,0-2.3-0.5-3.1-1.3
		c-0.8-0.8-1.3-1.9-1.3-3.1c0-1.2,0.5-2.3,1.3-3.1C7.7,6,8.8,5.5,10,5.5c1.2,0,2.3,0.5,3.1,1.3c0.8,0.8,1.3,1.9,1.3,3.1
		c0,1.2-0.5,2.3-1.3,3.1C12.3,13.8,11.2,14.3,10,14.3z"/>
	<path d="M13.8,1.6c0-0.5-0.4-0.9-0.9-0.9H7.1c-0.5,0-0.9,0.4-0.9,0.9v1.6h7.6L13.8,1.6L13.8,1.6z"/>
	<path d="M6.2,18.3c0,0.5,0.4,0.9,0.9,0.9h5.9c0.5,0,0.9-0.4,0.9-0.9v-1.6H6.2V18.3z"/>
	<path d="M10,6.4c0.1,0,0.3-0.1,0.3-0.3S10.1,5.9,10,5.9C9.9,5.9,9.7,6,9.7,6.1C9.7,6.3,9.9,6.4,10,6.4z"/>
	<path d="M10,13.4c-0.1,0-0.3,0.1-0.3,0.3c0,0.1,0.1,0.3,0.3,0.3c0.1,0,0.3-0.1,0.3-0.3C10.3,13.5,10.1,13.4,10,13.4z"/>
	<path d="M7.5,7.4c0.1-0.1,0.1-0.3,0-0.4c-0.1-0.1-0.3-0.1-0.4,0C7,7.2,7,7.3,7.1,7.4C7.2,7.5,7.4,7.5,7.5,7.4z"/>
	<path d="M12.5,12.4c-0.1,0.1-0.1,0.3,0,0.4c0.1,0.1,0.3,0.1,0.4,0c0.1-0.1,0.1-0.3,0-0.4C12.8,12.3,12.6,12.3,12.5,12.4z"/>
	<path d="M6.2,9.6C6.1,9.6,6,9.8,6,9.9c0,0.1,0.1,0.3,0.3,0.3c0.1,0,0.3-0.1,0.3-0.3C6.5,9.8,6.4,9.6,6.2,9.6z"/>
	<path d="M13.8,9.6c-0.1,0-0.3,0.1-0.3,0.3c0,0.1,0.1,0.3,0.3,0.3c0.1,0,0.3-0.1,0.3-0.3C14,9.8,13.9,9.6,13.8,9.6z"/>
	<path d="M7.1,12.4c-0.1,0.1-0.1,0.3,0,0.4c0.1,0.1,0.3,0.1,0.4,0c0.1-0.1,0.1-0.3,0-0.4C7.4,12.3,7.2,12.3,7.1,12.4z"/>
	<path d="M12.5,7.1c-0.1,0.1-0.1,0.3,0,0.4c0.1,0.1,0.3,0.1,0.4,0c0.1-0.1,0.1-0.3,0-0.4C12.8,6.9,12.6,6.9,12.5,7.1z"/>
</g>
</svg>
