<?xml version="1.0" encoding="UTF-8"?>
<svg id="Layer_16" data-name="Layer 16" xmlns="http://www.w3.org/2000/svg" viewBox="0 0 20 20">
  <defs>
    <style>
      .cls-1 {
        fill: none;
        stroke: #000;
        stroke-miterlimit: 10;
        stroke-width: .25px;
      }
    </style>
  </defs>
  <path class="cls-1" d="m14.13,5.13c-.52,0-.98.25-1.27.64-.29-.39-.75-.64-1.27-.64-.18,0-.32.14-.32.32s.14.32.32.32c.53,0,.95.43.95.95,0,.18.14.32.32.32s.32-.14.32-.32c0-.53.43-.95.95-.95.18,0,.32-.14.32-.32s-.14-.32-.32-.32Z"/>
  <path class="cls-1" d="m19.51,16.38l-3.47-12.55c0-.38-.46-1.06-3.02-1.84l-.49-.49s0,0,0,0l-.37-.37-.08-.15c-.19-.38-.57-.61-.99-.61h-2.21c-.42,0-.8.23-.99.61l-.08.15-.37.37s0,0,0,0l-.49.49c-2.55.78-3.01,1.45-3.02,1.84L.68,15.64s0,0,0,.01c0,0,0,.01,0,.02l-.2.71c-.13.5.17,1.02.66,1.16l.99.28c.25.07.52.04.74-.09.23-.13.39-.34.45-.59l1.58-5.96v6.68c0,.88.71,1.59,1.59,1.59h7c.88,0,1.59-.71,1.59-1.59v-6.68l1.4,5.28s0,0,0,0c0,0,0,0,0,0l.18.68c.06.25.22.47.45.6.23.13.49.16.74.09l.99-.28c.5-.14.79-.66.66-1.17ZM8.31,1.54s.04-.05.06-.08l.1-.2c.08-.16.24-.26.42-.26h2.21c.18,0,.34.1.42.26l.1.2s.04.06.06.08l.25.25c-.39.69-1.13,1.12-1.93,1.12s-1.54-.43-1.93-1.12l.25-.25Zm-5.76,15.65c-.08.04-.16.06-.25.03l-.99-.28c-.17-.05-.26-.22-.22-.38l.11-.41,1.6.46-.1.39c-.02.08-.07.16-.15.2Zm2.99.68v-9.13c0-.16-.12-.3-.28-.32-.01,0-.03,0-.04,0-.14,0-.27.1-.31.24l-1.94,7.32-1.6-.46L4.57,3.96s.02-.07.02-.1c.03-.07.35-.6,2.64-1.29.05-.02.1-.04.13-.08l.25-.25c.47.71,1.23,1.18,2.08,1.28v15.3h-3.18c-.53,0-.95-.43-.95-.95Zm9.54-9.21c-.04-.15-.19-.26-.35-.23-.16.02-.28.16-.28.32v9.13c0,.53-.43.95-.95.95h-3.18V3.52c.85-.1,1.61-.57,2.08-1.28l.25.25s.08.06.13.08c2.29.69,2.61,1.22,2.64,1.29,0,.03,0,.05.01.08l3.2,11.58-1.6.46-1.94-7.32Zm3.6,8.27l-.99.28c-.08.02-.17.01-.25-.03-.08-.04-.13-.12-.15-.21l-.1-.39,1.6-.46.11.41c.04.17-.06.34-.22.39Z"/>
</svg>